<svg xmlns="http://www.w3.org/2000/svg" width="1200" height="460" viewBox="0 0 1200 460" role="img" aria-labelledby="t d">
<title id="t">Harsh Rastogi — data scientist, Northern Territory</title>
<desc id="d">An animated night-lights map of the Northern Territory: town lights glow, signals travel a relay network along the Stuart Highway, and the tagline reads 'I turn Territory data into decisions, not just dashboards.'</desc>
<style>
.tw{animation:tw 5s ease-in-out infinite}
@keyframes tw{0%,100%{opacity:.15}50%{opacity:.9}}
.outline{stroke-dasharray:1;stroke-dashoffset:1;animation:draw 3.2s cubic-bezier(.6,0,.2,1) .2s forwards}
@keyframes draw{to{stroke-dashoffset:0}}
.fill{opacity:0;animation:fade 2s ease 2.2s forwards}
@keyframes fade{to{opacity:1}}
.light{animation:glow 4s ease-in-out infinite}
@keyframes glow{0%,100%{opacity:.55}50%{opacity:1}}
.ripple{transform-box:fill-box;transform-origin:center;animation:ripple 6s cubic-bezier(.2,.6,.3,1) infinite;opacity:0}
@keyframes ripple{0%{transform:scale(.1);opacity:.75}100%{transform:scale(1);opacity:0}}
.sweep{animation:sweep 9s linear infinite}
@keyframes sweep{0%{transform:translateY(-40px)}100%{transform:translateY(460px)}}
.links{opacity:0;animation:fade 1.6s ease 2.6s forwards}
.name{font:800 74px 'Plus Jakarta Sans','Segoe UI','Helvetica Neue',Helvetica,Arial,sans-serif;letter-spacing:-.02em}
.kicker{font:500 15px 'IBM Plex Mono',ui-monospace,SFMono-Regular,Menlo,Consolas,'Liberation Mono',monospace;fill:#35d3ee;letter-spacing:.22em}
.lead{font:600 29px 'Plus Jakarta Sans','Segoe UI','Helvetica Neue',Helvetica,Arial,sans-serif;fill:#e6e8ec;letter-spacing:-.01em}
.tick{font:500 19px 'IBM Plex Mono',ui-monospace,SFMono-Regular,Menlo,Consolas,'Liberation Mono',monospace;fill:#c0c3c9}
.tag{font:500 12px 'IBM Plex Mono',ui-monospace,SFMono-Regular,Menlo,Consolas,'Liberation Mono',monospace;fill:#9ca0a8;letter-spacing:.14em}
.lbl{font:500 10.5px 'IBM Plex Mono',ui-monospace,SFMono-Regular,Menlo,Consolas,'Liberation Mono',monospace;fill:#9ca0a8;letter-spacing:.08em}
.reveal{animation:reveal 1.4s cubic-bezier(.7,0,.2,1) .3s both}
@keyframes reveal{from{transform:translateX(-620px)}to{transform:translateX(0)}}
.rise{animation:rise 1s ease both}
@keyframes rise{from{opacity:0;transform:translateY(12px)}to{opacity:1;transform:none}}
.live{animation:live 1.6s ease-in-out infinite}
@keyframes live{0%,100%{opacity:1}50%{opacity:.25}}
@media (prefers-reduced-motion: reduce){*{animation:none!important}}</style>
<defs>
<linearGradient id="bg" x1="0" y1="0" x2="0" y2="1">
 <stop offset="0" stop-color="#0b1418"/><stop offset=".6" stop-color="#101112"/><stop offset="1" stop-color="#0c0d0e"/>
</linearGradient>
<radialGradient id="halo" cx="0.81" cy="0.45" r="0.42">
 <stop offset="0" stop-color="#036679" stop-opacity=".28"/><stop offset="1" stop-color="#036679" stop-opacity="0"/>
</radialGradient>
<radialGradient id="lamp"><stop offset="0" stop-color="#fff7d6"/><stop offset=".25" stop-color="#fbbf24" stop-opacity=".9"/>
 <stop offset="1" stop-color="#fbbf24" stop-opacity="0"/></radialGradient>
<radialGradient id="lampT"><stop offset="0" stop-color="#ecfeff"/><stop offset=".3" stop-color="#35d3ee" stop-opacity=".8"/>
 <stop offset="1" stop-color="#35d3ee" stop-opacity="0"/></radialGradient>
<linearGradient id="nameg" x1="0" y1="0" x2="1" y2="0">
 <stop offset="0" stop-color="#e6e8ec"/><stop offset=".55" stop-color="#8be9f7"/><stop offset="1" stop-color="#86eaa9"/>
</linearGradient>
<linearGradient id="sweepg" x1="0" y1="0" x2="0" y2="1">
 <stop offset="0" stop-color="#35d3ee" stop-opacity="0"/><stop offset="1" stop-color="#35d3ee" stop-opacity=".16"/>
</linearGradient>
<linearGradient id="landg" x1="0" y1="0" x2="0" y2="1">
 <stop offset="0" stop-color="#06353f" stop-opacity=".55"/><stop offset="1" stop-color="#06353f" stop-opacity=".18"/>
</linearGradient>
<filter id="soft" x="-30%" y="-30%" width="160%" height="160%"><feGaussianBlur stdDeviation="4"/></filter>
<clipPath id="namec"><rect x="56" y="100" width="760" height="100"/></clipPath>
</defs>
<rect width="1200" height="460" fill="url(#bg)"/>
<rect width="1200" height="460" fill="url(#halo)"/>
<g><circle cx="542.9" cy="257.5" r="1.1" fill="#c0c3c9" opacity=".35"/><circle cx="1026.1" cy="87.4" r="1.4" fill="#c0c3c9" opacity=".35"/><circle cx="736.8" cy="85.6" r="1.1" fill="#c0c3c9" opacity=".35" class="tw" style="animation-delay:-0.45s"/><circle cx="971.6" cy="319" r="0.6" fill="#c0c3c9" opacity=".35"/><circle cx="475.4" cy="208.4" r="1.4" fill="#c0c3c9" opacity=".35"/><circle cx="747.8" cy="382.6" r="0.6" fill="#c0c3c9" opacity=".35" class="tw" style="animation-delay:-0.95s"/><circle cx="290.3" cy="13.8" r="1.1" fill="#c0c3c9" opacity=".35" class="tw" style="animation-delay:-2.95s"/><circle cx="234.4" cy="107.5" r="0.8" fill="#c0c3c9" opacity=".35"/><circle cx="794.9" cy="210.4" r="0.8" fill="#c0c3c9" opacity=".35" class="tw" style="animation-delay:-2.76s"/><circle cx="1118" cy="38.3" r="0.8" fill="#c0c3c9" opacity=".35" class="tw" style="animation-delay:-1.15s"/><circle cx="346.8" cy="32.3" r="0.6" fill="#c0c3c9" opacity=".35" class="tw" style="animation-delay:-4.23s"/><circle cx="463.8" cy="440.7" r="0.6" fill="#c0c3c9" opacity=".35" class="tw" style="animation-delay:-4.64s"/><circle cx="62.8" cy="172.7" r="1.1" fill="#c0c3c9" opacity=".35" class="tw" style="animation-delay:-2.83s"/><circle cx="238.2" cy="310.5" r="0.8" fill="#c0c3c9" opacity=".35" class="tw" style="animation-delay:-1.66s"/><circle cx="1156.9" cy="348.7" r="0.6" fill="#c0c3c9" opacity=".35" class="tw" style="animation-delay:-3.54s"/><circle cx="13.1" cy="213.9" r="1.1" fill="#c0c3c9" opacity=".35" class="tw" style="animation-delay:-2.80s"/><circle cx="536.9" cy="87.7" r="0.8" fill="#c0c3c9" opacity=".35" class="tw" style="animation-delay:-1.92s"/><circle cx="473.8" cy="455.4" r="0.6" fill="#c0c3c9" opacity=".35" class="tw" style="animation-delay:-4.85s"/><circle cx="964.1" cy="139.9" r="0.6" fill="#c0c3c9" opacity=".35" class="tw" style="animation-delay:-1.97s"/><circle cx="1025.3" cy="295.2" r="0.6" fill="#c0c3c9" opacity=".35" class="tw" style="animation-delay:-0.73s"/><circle cx="529.9" cy="4.4" r="1.4" fill="#c0c3c9" opacity=".35" class="tw" style="animation-delay:-1.48s"/><circle cx="88.1" cy="41.5" r="1.4" fill="#c0c3c9" opacity=".35"/><circle cx="18.6" cy="169.6" r="1.4" fill="#c0c3c9" opacity=".35"/><circle cx="1151" cy="222.5" r="1.4" fill="#c0c3c9" opacity=".35" class="tw" style="animation-delay:-1.93s"/><circle cx="752.7" cy="143" r="0.8" fill="#c0c3c9" opacity=".35"/><circle cx="299.4" cy="87.3" r="1.4" fill="#c0c3c9" opacity=".35" class="tw" style="animation-delay:-4.75s"/><circle cx="1058.6" cy="277.6" r="1.1" fill="#c0c3c9" opacity=".35" class="tw" style="animation-delay:-0.55s"/><circle cx="614.8" cy="117.4" r="1.1" fill="#c0c3c9" opacity=".35" class="tw" style="animation-delay:-4.12s"/><circle cx="715.8" cy="135" r="0.8" fill="#c0c3c9" opacity=".35"/><circle cx="1172.6" cy="58.1" r="1.1" fill="#c0c3c9" opacity=".35"/><circle cx="1022.9" cy="282.6" r="0.8" fill="#c0c3c9" opacity=".35" class="tw" style="animation-delay:-4.57s"/><circle cx="898.8" cy="31.8" r="1.1" fill="#c0c3c9" opacity=".35" class="tw" style="animation-delay:-0.30s"/><circle cx="211.5" cy="169.6" r="1.4" fill="#c0c3c9" opacity=".35"/><circle cx="110.6" cy="63.7" r="1.1" fill="#c0c3c9" opacity=".35"/><circle cx="788.3" cy="318" r="1.4" fill="#c0c3c9" opacity=".35"/><circle cx="707.9" cy="424.9" r="1.1" fill="#c0c3c9" opacity=".35"/><circle cx="841.2" cy="442.9" r="0.6" fill="#c0c3c9" opacity=".35"/><circle cx="89.8" cy="30.9" r="0.8" fill="#c0c3c9" opacity=".35" class="tw" style="animation-delay:-5.00s"/><circle cx="90.3" cy="251.2" r="0.6" fill="#c0c3c9" opacity=".35"/><circle cx="884.5" cy="323.7" r="0.8" fill="#c0c3c9" opacity=".35" class="tw" style="animation-delay:-3.43s"/><circle cx="1081" cy="400.7" r="1.1" fill="#c0c3c9" opacity=".35"/><circle cx="36.3" cy="230" r="0.6" fill="#c0c3c9" opacity=".35"/><circle cx="458.8" cy="268" r="1.4" fill="#c0c3c9" opacity=".35" class="tw" style="animation-delay:-0.45s"/><circle cx="138.7" cy="118.3" r="1.1" fill="#c0c3c9" opacity=".35"/><circle cx="466.1" cy="338.1" r="1.4" fill="#c0c3c9" opacity=".35"/><circle cx="555.1" cy="249" r="1.4" fill="#c0c3c9" opacity=".35"/><circle cx="35.7" cy="276.6" r="1.1" fill="#c0c3c9" opacity=".35" class="tw" style="animation-delay:-4.79s"/><circle cx="135.5" cy="358.8" r="1.1" fill="#c0c3c9" opacity=".35" class="tw" style="animation-delay:-0.06s"/><circle cx="361.2" cy="311.9" r="0.8" fill="#c0c3c9" opacity=".35"/><circle cx="904.5" cy="157.6" r="1.1" fill="#c0c3c9" opacity=".35"/><circle cx="289.8" cy="186.2" r="0.8" fill="#c0c3c9" opacity=".35" class="tw" style="animation-delay:-2.15s"/><circle cx="967.2" cy="420.5" r="0.8" fill="#c0c3c9" opacity=".35" class="tw" style="animation-delay:-2.92s"/><circle cx="379.8" cy="62.6" r="1.1" fill="#c0c3c9" opacity=".35" class="tw" style="animation-delay:-4.48s"/><circle cx="48.7" cy="29.5" r="0.8" fill="#c0c3c9" opacity=".35"/><circle cx="135.4" cy="216.8" r="0.8" fill="#c0c3c9" opacity=".35"/><circle cx="459.1" cy="239.2" r="0.8" fill="#c0c3c9" opacity=".35"/><circle cx="1010.3" cy="287.4" r="0.8" fill="#c0c3c9" opacity=".35" class="tw" style="animation-delay:-0.16s"/><circle cx="1047.4" cy="19.1" r="0.8" fill="#c0c3c9" opacity=".35"/><circle cx="370.8" cy="364.1" r="0.6" fill="#c0c3c9" opacity=".35"/><circle cx="486.2" cy="87.4" r="0.8" fill="#c0c3c9" opacity=".35" class="tw" style="animation-delay:-0.70s"/><circle cx="56.3" cy="289.4" r="1.1" fill="#c0c3c9" opacity=".35" class="tw" style="animation-delay:-2.68s"/><circle cx="767.9" cy="169.6" r="0.6" fill="#c0c3c9" opacity=".35"/><circle cx="239.2" cy="218.6" r="0.8" fill="#c0c3c9" opacity=".35"/><circle cx="906.1" cy="246" r="0.6" fill="#c0c3c9" opacity=".35" class="tw" style="animation-delay:-1.36s"/><circle cx="414.9" cy="320.8" r="1.4" fill="#c0c3c9" opacity=".35"/><circle cx="1196.2" cy="73.2" r="0.8" fill="#c0c3c9" opacity=".35" class="tw" style="animation-delay:-4.66s"/><circle cx="866.9" cy="59.8" r="1.1" fill="#c0c3c9" opacity=".35" class="tw" style="animation-delay:-4.44s"/><circle cx="8.1" cy="253" r="1.4" fill="#c0c3c9" opacity=".35"/><circle cx="1133.1" cy="213.3" r="0.8" fill="#c0c3c9" opacity=".35" class="tw" style="animation-delay:-4.33s"/><circle cx="958" cy="425.1" r="0.6" fill="#c0c3c9" opacity=".35" class="tw" style="animation-delay:-4.50s"/><circle cx="1176.6" cy="449.6" r="1.4" fill="#c0c3c9" opacity=".35"/><circle cx="1118.7" cy="120.5" r="0.6" fill="#c0c3c9" opacity=".35" class="tw" style="animation-delay:-0.41s"/><circle cx="529.1" cy="253.1" r="0.8" fill="#c0c3c9" opacity=".35"/><circle cx="34.1" cy="372.2" r="0.6" fill="#c0c3c9" opacity=".35" class="tw" style="animation-delay:-0.18s"/><circle cx="639.7" cy="315.8" r="0.8" fill="#c0c3c9" opacity=".35"/><circle cx="1199.8" cy="414.3" r="1.4" fill="#c0c3c9" opacity=".35"/><circle cx="827.2" cy="435" r="1.1" fill="#c0c3c9" opacity=".35"/><circle cx="826.9" cy="348.6" r="1.1" fill="#c0c3c9" opacity=".35"/><circle cx="348.2" cy="335.3" r="0.8" fill="#c0c3c9" opacity=".35"/><circle cx="1012.3" cy="257.6" r="0.8" fill="#c0c3c9" opacity=".35"/><circle cx="1145.7" cy="400.2" r="1.4" fill="#c0c3c9" opacity=".35" class="tw" style="animation-delay:-4.25s"/><circle cx="1162.1" cy="241.1" r="1.4" fill="#c0c3c9" opacity=".35"/><circle cx="493.3" cy="52.6" r="0.6" fill="#c0c3c9" opacity=".35"/><circle cx="33.3" cy="445.9" r="1.4" fill="#c0c3c9" opacity=".35"/><circle cx="652.8" cy="455.1" r="0.6" fill="#c0c3c9" opacity=".35"/><circle cx="829.2" cy="30.3" r="1.4" fill="#c0c3c9" opacity=".35"/><circle cx="1104.9" cy="368.2" r="1.1" fill="#c0c3c9" opacity=".35" class="tw" style="animation-delay:-2.37s"/><circle cx="152.4" cy="199.5" r="1.1" fill="#c0c3c9" opacity=".35"/><circle cx="130.3" cy="193" r="0.6" fill="#c0c3c9" opacity=".35"/><circle cx="155.4" cy="358.5" r="0.6" fill="#c0c3c9" opacity=".35" class="tw" style="animation-delay:-0.78s"/><circle cx="14.2" cy="130.7" r="0.8" fill="#c0c3c9" opacity=".35" class="tw" style="animation-delay:-2.49s"/><circle cx="599.6" cy="267.8" r="1.4" fill="#c0c3c9" opacity=".35"/><circle cx="861.2" cy="322.6" r="1.1" fill="#c0c3c9" opacity=".35" class="tw" style="animation-delay:-3.17s"/><circle cx="990.2" cy="283.3" r="1.4" fill="#c0c3c9" opacity=".35" class="tw" style="animation-delay:-3.16s"/><circle cx="766.2" cy="243.6" r="1.4" fill="#c0c3c9" opacity=".35"/><circle cx="1028.1" cy="107" r="0.8" fill="#c0c3c9" opacity=".35"/><circle cx="379" cy="144.9" r="0.8" fill="#c0c3c9" opacity=".35" class="tw" style="animation-delay:-4.99s"/><circle cx="1065.1" cy="61.6" r="0.8" fill="#c0c3c9" opacity=".35" class="tw" style="animation-delay:-0.44s"/><circle cx="465.5" cy="200" r="1.1" fill="#c0c3c9" opacity=".35"/><circle cx="845.8" cy="92.3" r="0.6" fill="#c0c3c9" opacity=".35" class="tw" style="animation-delay:-2.85s"/><circle cx="429.1" cy="377.6" r="0.8" fill="#c0c3c9" opacity=".35" class="tw" style="animation-delay:-2.53s"/><circle cx="909.8" cy="231.3" r="0.8" fill="#c0c3c9" opacity=".35"/><circle cx="578.5" cy="11.2" r="1.4" fill="#c0c3c9" opacity=".35"/><circle cx="1086.1" cy="221.4" r="0.8" fill="#c0c3c9" opacity=".35" class="tw" style="animation-delay:-1.02s"/><circle cx="1008.3" cy="455.5" r="0.6" fill="#c0c3c9" opacity=".35"/><circle cx="161.3" cy="313.2" r="0.6" fill="#c0c3c9" opacity=".35"/><circle cx="392.2" cy="214.8" r="1.4" fill="#c0c3c9" opacity=".35" class="tw" style="animation-delay:-1.05s"/><circle cx="447.8" cy="291.6" r="0.6" fill="#c0c3c9" opacity=".35"/><circle cx="217.5" cy="208.8" r="0.8" fill="#c0c3c9" opacity=".35" class="tw" style="animation-delay:-0.98s"/><circle cx="198.1" cy="235.8" r="0.6" fill="#c0c3c9" opacity=".35" class="tw" style="animation-delay:-0.42s"/><circle cx="1010.3" cy="402.8" r="1.1" fill="#c0c3c9" opacity=".35"/><circle cx="229.1" cy="268.9" r="0.8" fill="#c0c3c9" opacity=".35"/><circle cx="309.9" cy="419.2" r="0.8" fill="#c0c3c9" opacity=".35"/><circle cx="486.8" cy="412.4" r="1.4" fill="#c0c3c9" opacity=".35"/><circle cx="920.7" cy="352" r="1.1" fill="#c0c3c9" opacity=".35" class="tw" style="animation-delay:-0.92s"/><circle cx="956.8" cy="138.8" r="0.6" fill="#c0c3c9" opacity=".35" class="tw" style="animation-delay:-1.78s"/><circle cx="766.5" cy="287" r="0.8" fill="#c0c3c9" opacity=".35" class="tw" style="animation-delay:-4.81s"/><circle cx="358.6" cy="99.4" r="1.1" fill="#c0c3c9" opacity=".35"/><circle cx="639.7" cy="179.2" r="1.1" fill="#c0c3c9" opacity=".35"/><circle cx="841.5" cy="350.4" r="1.4" fill="#c0c3c9" opacity=".35" class="tw" style="animation-delay:-3.08s"/></g>
<g stroke="#303237" stroke-width=".6" stroke-dasharray="2 5" opacity=".7"><line x1="883.8" y1="14" x2="883.8" y2="446"/><text x="883.8" y="452" text-anchor="middle" class="lbl" stroke="none">130°E</text><line x1="936.8" y1="14" x2="936.8" y2="446"/><text x="936.8" y="452" text-anchor="middle" class="lbl" stroke="none">132°E</text><line x1="989.8" y1="14" x2="989.8" y2="446"/><text x="989.8" y="452" text-anchor="middle" class="lbl" stroke="none">134°E</text><line x1="1042.8" y1="14" x2="1042.8" y2="446"/><text x="1042.8" y="452" text-anchor="middle" class="lbl" stroke="none">136°E</text><line x1="1095.8" y1="14" x2="1095.8" y2="446"/><text x="1095.8" y="452" text-anchor="middle" class="lbl" stroke="none">138°E</text><line x1="812" y1="51.1" x2="1170" y2="51.1"/><text x="1174" y="54.6" class="lbl" stroke="none">12°S</text><line x1="812" y1="157.1" x2="1170" y2="157.1"/><text x="1174" y="160.6" class="lbl" stroke="none">16°S</text><line x1="812" y1="263.1" x2="1170" y2="263.1"/><text x="1174" y="266.6" class="lbl" stroke="none">20°S</text><line x1="812" y1="369.1" x2="1170" y2="369.1"/><text x="1174" y="372.6" class="lbl" stroke="none">24°S</text></g>
<path class="fill" d="M857.3,127.5C858.8,127.6 863.5,127.8 866.6,128.5C869.7,129.3 874,132.3 875.8,132C877.7,131.7 878.5,128.9 878,126.7C877.4,124.5 874.3,120.8 872.7,118.7C871,116.6 868.3,116.3 867.9,114.2C867.5,112.1 869.2,109.1 870.5,106.3C871.9,103.5 874.2,100.2 875.8,97.5C877.5,94.9 878.6,92.8 880.6,90.4C882.6,87.9 886.1,85.6 887.8,82.9C889.5,80.3 889.2,77 891,74.5C892.7,71.9 896.1,69.6 898.4,67.6C900.6,65.5 902.8,63.8 904.5,62.3C906.1,60.8 906.9,59.5 908.2,58.6C909.5,57.6 910.7,57.2 912.4,56.4C914.2,55.7 916.3,53.5 918.8,53.8C921.3,54.1 924.1,57.3 927.5,58C931,58.8 936,58.8 939.4,58.3C942.9,57.8 945.9,57.4 947.9,55.1C950,52.9 952.5,47.7 951.6,44.8C950.8,41.9 944.4,40.5 942.6,37.9C940.9,35.2 939.4,30 941,28.9C942.7,27.7 950,29.2 952.7,31C955.4,32.8 954.8,37.5 957.5,39.5C960.1,41.5 964.9,41.9 968.6,43.2C972.3,44.5 975.3,46.1 979.7,47.4C984.1,48.8 990.3,50.8 995.1,51.1C999.9,51.5 1004.4,48.5 1008.3,49.6C1012.3,50.6 1015.4,57 1018.9,57.5C1022.5,58 1026,54 1029.5,52.5C1033.1,51 1036.2,48.9 1040.1,48.5C1044.1,48.1 1049.9,48.9 1053.4,49.8C1056.9,50.7 1059.1,52.2 1061.3,53.8C1063.6,55.4 1067.5,56.5 1067.2,59.6C1066.8,62.7 1062.8,68.5 1059.2,72.4C1055.7,76.2 1049.1,79.4 1046,82.9C1042.9,86.5 1041.8,89.6 1040.7,93.5C1039.5,97.5 1040.9,102.6 1039.1,106.8C1037.3,111 1031.8,115.2 1030.1,118.7C1028.3,122.3 1026.8,125.1 1028.5,128C1030.2,130.9 1036.4,133.1 1040.1,135.9C1043.9,138.8 1047,142.4 1050.8,145.2C1054.5,148.1 1058.7,151 1062.7,153.2C1066.6,155.4 1070.8,156.3 1074.6,158.5C1078.4,160.7 1081.7,164.2 1085.2,166.4C1088.7,168.6 1094,170.8 1095.8,171.7L1095.8,422.1L857.3,422.1ZM894.4,36.6C897,34.8 904.6,32.8 909,32.6C913.4,32.4 918.2,33.7 920.9,35.2C923.5,36.8 926.2,39.9 924.9,41.9C923.5,43.9 917.1,46.5 912.9,47.2C908.8,47.8 903,46.5 899.7,45.9C896.4,45.2 894.2,44.7 893.3,43.2C892.5,41.7 891.8,38.3 894.4,36.6ZM882.5,36.6C884.6,35 890.6,33.7 892.3,35.2C894,36.8 893.6,43.4 892.8,45.9C892,48.3 889.7,50 887.5,49.8C885.3,49.6 880.7,46.7 879.8,44.5C879,42.3 880.4,38.1 882.5,36.6ZM1052.1,97.5C1054.1,96 1060.4,94.9 1062.7,96.2C1064.9,97.5 1066.5,103 1065.6,105.5C1064.7,107.9 1059.8,110.8 1057.4,110.8C1054.9,110.8 1051.6,107.7 1050.8,105.5C1049.9,103.3 1050.1,99.1 1052.1,97.5Z" fill="url(#landg)"/>
<path d="M857.3,127.5C858.8,127.6 863.5,127.8 866.6,128.5C869.7,129.3 874,132.3 875.8,132C877.7,131.7 878.5,128.9 878,126.7C877.4,124.5 874.3,120.8 872.7,118.7C871,116.6 868.3,116.3 867.9,114.2C867.5,112.1 869.2,109.1 870.5,106.3C871.9,103.5 874.2,100.2 875.8,97.5C877.5,94.9 878.6,92.8 880.6,90.4C882.6,87.9 886.1,85.6 887.8,82.9C889.5,80.3 889.2,77 891,74.5C892.7,71.9 896.1,69.6 898.4,67.6C900.6,65.5 902.8,63.8 904.5,62.3C906.1,60.8 906.9,59.5 908.2,58.6C909.5,57.6 910.7,57.2 912.4,56.4C914.2,55.7 916.3,53.5 918.8,53.8C921.3,54.1 924.1,57.3 927.5,58C931,58.8 936,58.8 939.4,58.3C942.9,57.8 945.9,57.4 947.9,55.1C950,52.9 952.5,47.7 951.6,44.8C950.8,41.9 944.4,40.5 942.6,37.9C940.9,35.2 939.4,30 941,28.9C942.7,27.7 950,29.2 952.7,31C955.4,32.8 954.8,37.5 957.5,39.5C960.1,41.5 964.9,41.9 968.6,43.2C972.3,44.5 975.3,46.1 979.7,47.4C984.1,48.8 990.3,50.8 995.1,51.1C999.9,51.5 1004.4,48.5 1008.3,49.6C1012.3,50.6 1015.4,57 1018.9,57.5C1022.5,58 1026,54 1029.5,52.5C1033.1,51 1036.2,48.9 1040.1,48.5C1044.1,48.1 1049.9,48.9 1053.4,49.8C1056.9,50.7 1059.1,52.2 1061.3,53.8C1063.6,55.4 1067.5,56.5 1067.2,59.6C1066.8,62.7 1062.8,68.5 1059.2,72.4C1055.7,76.2 1049.1,79.4 1046,82.9C1042.9,86.5 1041.8,89.6 1040.7,93.5C1039.5,97.5 1040.9,102.6 1039.1,106.8C1037.3,111 1031.8,115.2 1030.1,118.7C1028.3,122.3 1026.8,125.1 1028.5,128C1030.2,130.9 1036.4,133.1 1040.1,135.9C1043.9,138.8 1047,142.4 1050.8,145.2C1054.5,148.1 1058.7,151 1062.7,153.2C1066.6,155.4 1070.8,156.3 1074.6,158.5C1078.4,160.7 1081.7,164.2 1085.2,166.4C1088.7,168.6 1094,170.8 1095.8,171.7L1095.8,422.1L857.3,422.1ZM894.4,36.6C897,34.8 904.6,32.8 909,32.6C913.4,32.4 918.2,33.7 920.9,35.2C923.5,36.8 926.2,39.9 924.9,41.9C923.5,43.9 917.1,46.5 912.9,47.2C908.8,47.8 903,46.5 899.7,45.9C896.4,45.2 894.2,44.7 893.3,43.2C892.5,41.7 891.8,38.3 894.4,36.6ZM882.5,36.6C884.6,35 890.6,33.7 892.3,35.2C894,36.8 893.6,43.4 892.8,45.9C892,48.3 889.7,50 887.5,49.8C885.3,49.6 880.7,46.7 879.8,44.5C879,42.3 880.4,38.1 882.5,36.6ZM1052.1,97.5C1054.1,96 1060.4,94.9 1062.7,96.2C1064.9,97.5 1066.5,103 1065.6,105.5C1064.7,107.9 1059.8,110.8 1057.4,110.8C1054.9,110.8 1051.6,107.7 1050.8,105.5C1049.9,103.3 1050.1,99.1 1052.1,97.5Z" fill="none" stroke="#06b6d4" stroke-width="5" opacity=".25" filter="url(#soft)" class="fill"/>
<path class="outline" pathLength="1" d="M857.3,127.5C858.8,127.6 863.5,127.8 866.6,128.5C869.7,129.3 874,132.3 875.8,132C877.7,131.7 878.5,128.9 878,126.7C877.4,124.5 874.3,120.8 872.7,118.7C871,116.6 868.3,116.3 867.9,114.2C867.5,112.1 869.2,109.1 870.5,106.3C871.9,103.5 874.2,100.2 875.8,97.5C877.5,94.9 878.6,92.8 880.6,90.4C882.6,87.9 886.1,85.6 887.8,82.9C889.5,80.3 889.2,77 891,74.5C892.7,71.9 896.1,69.6 898.4,67.6C900.6,65.5 902.8,63.8 904.5,62.3C906.1,60.8 906.9,59.5 908.2,58.6C909.5,57.6 910.7,57.2 912.4,56.4C914.2,55.7 916.3,53.5 918.8,53.8C921.3,54.1 924.1,57.3 927.5,58C931,58.8 936,58.8 939.4,58.3C942.9,57.8 945.9,57.4 947.9,55.1C950,52.9 952.5,47.7 951.6,44.8C950.8,41.9 944.4,40.5 942.6,37.9C940.9,35.2 939.4,30 941,28.9C942.7,27.7 950,29.2 952.7,31C955.4,32.8 954.8,37.5 957.5,39.5C960.1,41.5 964.9,41.9 968.6,43.2C972.3,44.5 975.3,46.1 979.7,47.4C984.1,48.8 990.3,50.8 995.1,51.1C999.9,51.5 1004.4,48.5 1008.3,49.6C1012.3,50.6 1015.4,57 1018.9,57.5C1022.5,58 1026,54 1029.5,52.5C1033.1,51 1036.2,48.9 1040.1,48.5C1044.1,48.1 1049.9,48.9 1053.4,49.8C1056.9,50.7 1059.1,52.2 1061.3,53.8C1063.6,55.4 1067.5,56.5 1067.2,59.6C1066.8,62.7 1062.8,68.5 1059.2,72.4C1055.7,76.2 1049.1,79.4 1046,82.9C1042.9,86.5 1041.8,89.6 1040.7,93.5C1039.5,97.5 1040.9,102.6 1039.1,106.8C1037.3,111 1031.8,115.2 1030.1,118.7C1028.3,122.3 1026.8,125.1 1028.5,128C1030.2,130.9 1036.4,133.1 1040.1,135.9C1043.9,138.8 1047,142.4 1050.8,145.2C1054.5,148.1 1058.7,151 1062.7,153.2C1066.6,155.4 1070.8,156.3 1074.6,158.5C1078.4,160.7 1081.7,164.2 1085.2,166.4C1088.7,168.6 1094,170.8 1095.8,171.7L1095.8,422.1L857.3,422.1Z" fill="none" stroke="#35d3ee" stroke-width="1.4" stroke-linejoin="round"/>
<path class="fill" d="M894.4,36.6C897,34.8 904.6,32.8 909,32.6C913.4,32.4 918.2,33.7 920.9,35.2C923.5,36.8 926.2,39.9 924.9,41.9C923.5,43.9 917.1,46.5 912.9,47.2C908.8,47.8 903,46.5 899.7,45.9C896.4,45.2 894.2,44.7 893.3,43.2C892.5,41.7 891.8,38.3 894.4,36.6ZM882.5,36.6C884.6,35 890.6,33.7 892.3,35.2C894,36.8 893.6,43.4 892.8,45.9C892,48.3 889.7,50 887.5,49.8C885.3,49.6 880.7,46.7 879.8,44.5C879,42.3 880.4,38.1 882.5,36.6ZM1052.1,97.5C1054.1,96 1060.4,94.9 1062.7,96.2C1064.9,97.5 1066.5,103 1065.6,105.5C1064.7,107.9 1059.8,110.8 1057.4,110.8C1054.9,110.8 1051.6,107.7 1050.8,105.5C1049.9,103.3 1050.1,99.1 1052.1,97.5Z" fill="none" stroke="#35d3ee" stroke-width="1.2"/>
<g clip-path="url(#mapclip)"><g class="sweep"><rect x="842" y="0" width="348" height="40" fill="url(#sweepg)"/><rect x="842" y="39" width="348" height="1" fill="#35d3ee" opacity=".35"/></g></g>
<clipPath id="mapclip"><path d="M857.3,127.5C858.8,127.6 863.5,127.8 866.6,128.5C869.7,129.3 874,132.3 875.8,132C877.7,131.7 878.5,128.9 878,126.7C877.4,124.5 874.3,120.8 872.7,118.7C871,116.6 868.3,116.3 867.9,114.2C867.5,112.1 869.2,109.1 870.5,106.3C871.9,103.5 874.2,100.2 875.8,97.5C877.5,94.9 878.6,92.8 880.6,90.4C882.6,87.9 886.1,85.6 887.8,82.9C889.5,80.3 889.2,77 891,74.5C892.7,71.9 896.1,69.6 898.4,67.6C900.6,65.5 902.8,63.8 904.5,62.3C906.1,60.8 906.9,59.5 908.2,58.6C909.5,57.6 910.7,57.2 912.4,56.4C914.2,55.7 916.3,53.5 918.8,53.8C921.3,54.1 924.1,57.3 927.5,58C931,58.8 936,58.8 939.4,58.3C942.9,57.8 945.9,57.4 947.9,55.1C950,52.9 952.5,47.7 951.6,44.8C950.8,41.9 944.4,40.5 942.6,37.9C940.9,35.2 939.4,30 941,28.9C942.7,27.7 950,29.2 952.7,31C955.4,32.8 954.8,37.5 957.5,39.5C960.1,41.5 964.9,41.9 968.6,43.2C972.3,44.5 975.3,46.1 979.7,47.4C984.1,48.8 990.3,50.8 995.1,51.1C999.9,51.5 1004.4,48.5 1008.3,49.6C1012.3,50.6 1015.4,57 1018.9,57.5C1022.5,58 1026,54 1029.5,52.5C1033.1,51 1036.2,48.9 1040.1,48.5C1044.1,48.1 1049.9,48.9 1053.4,49.8C1056.9,50.7 1059.1,52.2 1061.3,53.8C1063.6,55.4 1067.5,56.5 1067.2,59.6C1066.8,62.7 1062.8,68.5 1059.2,72.4C1055.7,76.2 1049.1,79.4 1046,82.9C1042.9,86.5 1041.8,89.6 1040.7,93.5C1039.5,97.5 1040.9,102.6 1039.1,106.8C1037.3,111 1031.8,115.2 1030.1,118.7C1028.3,122.3 1026.8,125.1 1028.5,128C1030.2,130.9 1036.4,133.1 1040.1,135.9C1043.9,138.8 1047,142.4 1050.8,145.2C1054.5,148.1 1058.7,151 1062.7,153.2C1066.6,155.4 1070.8,156.3 1074.6,158.5C1078.4,160.7 1081.7,164.2 1085.2,166.4C1088.7,168.6 1094,170.8 1095.8,171.7L1095.8,422.1L857.3,422.1Z"/></clipPath>
<g class="links"><path d="M906.1,63.3 L911.1,79 L932.3,99.4 L943.7,116.6 L965.2,128.5 L973.1,163.8 L977.6,198.2 L994.8,253.9 L998.5,290.2 L974.4,319.6 L986.6,361.2 L1005.2,410.8" fill="none" stroke="#35d3ee" stroke-width="1.3" opacity=".55"/><path id="sp0" d="M943.7,116.6 L896.5,147.9 L902.6,195 L900.8,218.9" fill="none" stroke="#8be9f7" stroke-width=".9" stroke-dasharray="3 3" opacity=".45"/><path id="sp1" d="M906.1,63.3 L959.1,68.9 L995.9,52.7 L1014.2,59.9 L1031.4,51.9 L1063.5,55.9" fill="none" stroke="#8be9f7" stroke-width=".9" stroke-dasharray="3 3" opacity=".45"/><path id="sp2" d="M965.2,128.5 L1009.1,123.5 L1035.9,111.3 L1053.9,100.2" fill="none" stroke="#8be9f7" stroke-width=".9" stroke-dasharray="3 3" opacity=".45"/><path id="sp3" d="M973.1,163.8 L1050.8,159" fill="none" stroke="#8be9f7" stroke-width=".9" stroke-dasharray="3 3" opacity=".45"/><path id="sp4" d="M911.1,79 L871.1,110.5" fill="none" stroke="#8be9f7" stroke-width=".9" stroke-dasharray="3 3" opacity=".45"/><path id="sp5" d="M986.6,361.2 L957.5,367.6 L934.7,348.2 L867.4,349.8 L859.9,391.9" fill="none" stroke="#8be9f7" stroke-width=".9" stroke-dasharray="3 3" opacity=".45"/><path id="sp6" d="M974.4,319.6 L931.5,322.8" fill="none" stroke="#8be9f7" stroke-width=".9" stroke-dasharray="3 3" opacity=".45"/><path id="sp7" d="M986.6,361.2 L1014.2,341.9" fill="none" stroke="#8be9f7" stroke-width=".9" stroke-dasharray="3 3" opacity=".45"/><path id="sp8" d="M957.5,367.6 L910,402" fill="none" stroke="#8be9f7" stroke-width=".9" stroke-dasharray="3 3" opacity=".45"/><path id="sp9" d="M959.1,68.9 L953.2,35.8" fill="none" stroke="#8be9f7" stroke-width=".9" stroke-dasharray="3 3" opacity=".45"/><path id="sp10" d="M906.1,63.3 L900.5,44.8" fill="none" stroke="#8be9f7" stroke-width=".9" stroke-dasharray="3 3" opacity=".45"/><path id="spine" d="M906.1,63.3 L911.1,79 L932.3,99.4 L943.7,116.6 L965.2,128.5 L973.1,163.8 L977.6,198.2 L994.8,253.9 L998.5,290.2 L974.4,319.6 L986.6,361.2 L1005.2,410.8" fill="none"/><circle r="2.1" fill="#ecfeff"><animateMotion dur="5.4s" begin="4.48s" repeatCount="indefinite"><mpath href="#sp0"/></animateMotion></circle><circle r="2.1" fill="#ecfeff"><animateMotion dur="6.8s" begin="3.51s" repeatCount="indefinite"><mpath href="#sp1"/></animateMotion></circle><circle r="2.1" fill="#ecfeff"><animateMotion dur="5.4s" begin="3.80s" repeatCount="indefinite"><mpath href="#sp2"/></animateMotion></circle><circle r="2.1" fill="#ecfeff"><animateMotion dur="4.0s" begin="3.10s" repeatCount="indefinite"><mpath href="#sp3"/></animateMotion></circle><circle r="2.1" fill="#ecfeff"><animateMotion dur="4.0s" begin="3.39s" repeatCount="indefinite"><mpath href="#sp4"/></animateMotion></circle><circle r="2.1" fill="#ecfeff"><animateMotion dur="6.1s" begin="3.75s" repeatCount="indefinite"><mpath href="#sp5"/></animateMotion></circle><circle r="2.1" fill="#ecfeff"><animateMotion dur="4.0s" begin="3.20s" repeatCount="indefinite"><mpath href="#sp6"/></animateMotion></circle><circle r="2.1" fill="#ecfeff"><animateMotion dur="4.0s" begin="3.50s" repeatCount="indefinite"><mpath href="#sp7"/></animateMotion></circle><circle r="2.1" fill="#ecfeff"><animateMotion dur="4.0s" begin="4.81s" repeatCount="indefinite"><mpath href="#sp8"/></animateMotion></circle><circle r="2.1" fill="#ecfeff"><animateMotion dur="4.0s" begin="4.10s" repeatCount="indefinite"><mpath href="#sp9"/></animateMotion></circle><circle r="2.1" fill="#ecfeff"><animateMotion dur="4.0s" begin="4.02s" repeatCount="indefinite"><mpath href="#sp10"/></animateMotion></circle><circle r="2.4" fill="#86eaa9"><animateMotion dur="9s" begin="3s" repeatCount="indefinite"><mpath href="#spine"/></animateMotion></circle><circle r="2.4" fill="#86eaa9"><animateMotion dur="9s" begin="6s" repeatCount="indefinite"><mpath href="#spine"/></animateMotion></circle><circle r="2.4" fill="#86eaa9"><animateMotion dur="9s" begin="9s" repeatCount="indefinite"><mpath href="#spine"/></animateMotion></circle></g>
<g class="fill"><g class="light" style="animation-delay:-3.87s"><circle cx="906.1" cy="63.3" r="16" fill="url(#lamp)"/><circle cx="906.1" cy="63.3" r="2.45" fill="#fffbeb"/></g><g class="light" style="animation-delay:-2.27s"><circle cx="943.7" cy="116.6" r="16" fill="url(#lamp)"/><circle cx="943.7" cy="116.6" r="2.45" fill="#fffbeb"/></g><g class="light" style="animation-delay:-3.98s"><circle cx="994.8" cy="253.9" r="16" fill="url(#lamp)"/><circle cx="994.8" cy="253.9" r="2.45" fill="#fffbeb"/></g><g class="light" style="animation-delay:-2.55s"><circle cx="986.6" cy="361.2" r="16" fill="url(#lamp)"/><circle cx="986.6" cy="361.2" r="2.45" fill="#fffbeb"/></g><g class="light" style="animation-delay:-3.24s"><circle cx="1063.5" cy="55.9" r="11" fill="url(#lampT)"/><circle cx="1063.5" cy="55.9" r="2.00" fill="#fffbeb"/></g><g class="light" style="animation-delay:-0.30s"><circle cx="959.1" cy="68.9" r="11" fill="url(#lampT)"/><circle cx="959.1" cy="68.9" r="2.00" fill="#fffbeb"/></g><g class="light" style="animation-delay:-2.39s"><circle cx="910" cy="402" r="11" fill="url(#lampT)"/><circle cx="910" cy="402" r="2.00" fill="#fffbeb"/></g><g class="light" style="animation-delay:-3.04s"><circle cx="1050.8" cy="159" r="11" fill="url(#lampT)"/><circle cx="1050.8" cy="159" r="2.00" fill="#fffbeb"/></g><g class="light" style="animation-delay:-0.18s"><circle cx="871.1" cy="110.5" r="11" fill="url(#lampT)"/><circle cx="871.1" cy="110.5" r="2.00" fill="#fffbeb"/></g><g class="light" style="animation-delay:-3.72s"><circle cx="995.9" cy="52.7" r="11" fill="url(#lampT)"/><circle cx="995.9" cy="52.7" r="2.00" fill="#fffbeb"/></g><g class="light" style="animation-delay:-0.64s"><circle cx="902.6" cy="195" r="7" fill="url(#lampT)"/><circle cx="902.6" cy="195" r="1.55" fill="#fffbeb"/></g><g class="light" style="animation-delay:-1.89s"><circle cx="1009.1" cy="123.5" r="7" fill="url(#lampT)"/><circle cx="1009.1" cy="123.5" r="1.55" fill="#fffbeb"/></g><g class="light" style="animation-delay:-0.68s"><circle cx="977.6" cy="198.2" r="7" fill="url(#lampT)"/><circle cx="977.6" cy="198.2" r="1.55" fill="#fffbeb"/></g><g class="light" style="animation-delay:-1.98s"><circle cx="957.5" cy="367.6" r="7" fill="url(#lampT)"/><circle cx="957.5" cy="367.6" r="1.55" fill="#fffbeb"/></g><g class="light" style="animation-delay:-2.44s"><circle cx="931.5" cy="322.8" r="7" fill="url(#lampT)"/><circle cx="931.5" cy="322.8" r="1.55" fill="#fffbeb"/></g><g class="light" style="animation-delay:-0.23s"><circle cx="900.8" cy="218.9" r="7" fill="url(#lampT)"/><circle cx="900.8" cy="218.9" r="1.55" fill="#fffbeb"/></g><g class="light" style="animation-delay:-3.78s"><circle cx="1031.4" cy="51.9" r="7" fill="url(#lampT)"/><circle cx="1031.4" cy="51.9" r="1.55" fill="#fffbeb"/></g><g class="light" style="animation-delay:-1.68s"><circle cx="973.1" cy="163.8" r="7" fill="url(#lampT)"/><circle cx="973.1" cy="163.8" r="1.55" fill="#fffbeb"/></g><g class="light" style="animation-delay:-2.11s"><circle cx="896.5" cy="147.9" r="7" fill="url(#lampT)"/><circle cx="896.5" cy="147.9" r="1.55" fill="#fffbeb"/></g><g class="light" style="animation-delay:-2.39s"><circle cx="998.5" cy="290.2" r="7" fill="url(#lampT)"/><circle cx="998.5" cy="290.2" r="1.55" fill="#fffbeb"/></g><g class="light" style="animation-delay:-1.46s"><circle cx="934.7" cy="348.2" r="7" fill="url(#lampT)"/><circle cx="934.7" cy="348.2" r="1.55" fill="#fffbeb"/></g><g class="light" style="animation-delay:-1.14s"><circle cx="867.4" cy="349.8" r="7" fill="url(#lampT)"/><circle cx="867.4" cy="349.8" r="1.55" fill="#fffbeb"/></g><g class="light" style="animation-delay:-2.62s"><circle cx="965.2" cy="128.5" r="7" fill="url(#lampT)"/><circle cx="965.2" cy="128.5" r="1.55" fill="#fffbeb"/></g><g class="light" style="animation-delay:-2.24s"><circle cx="1035.9" cy="111.3" r="7" fill="url(#lampT)"/><circle cx="1035.9" cy="111.3" r="1.55" fill="#fffbeb"/></g><g class="light" style="animation-delay:-1.13s"><circle cx="1053.9" cy="100.2" r="7" fill="url(#lampT)"/><circle cx="1053.9" cy="100.2" r="1.55" fill="#fffbeb"/></g><g class="light" style="animation-delay:-2.87s"><circle cx="900.5" cy="44.8" r="7" fill="url(#lampT)"/><circle cx="900.5" cy="44.8" r="1.55" fill="#fffbeb"/></g><g class="light" style="animation-delay:-1.18s"><circle cx="932.3" cy="99.4" r="7" fill="url(#lampT)"/><circle cx="932.3" cy="99.4" r="1.55" fill="#fffbeb"/></g><g class="light" style="animation-delay:-0.06s"><circle cx="911.1" cy="79" r="7" fill="url(#lampT)"/><circle cx="911.1" cy="79" r="1.55" fill="#fffbeb"/></g><g class="light" style="animation-delay:-0.98s"><circle cx="974.4" cy="319.6" r="7" fill="url(#lampT)"/><circle cx="974.4" cy="319.6" r="1.55" fill="#fffbeb"/></g><g class="light" style="animation-delay:-0.17s"><circle cx="1014.2" cy="341.9" r="7" fill="url(#lampT)"/><circle cx="1014.2" cy="341.9" r="1.55" fill="#fffbeb"/></g><g class="light" style="animation-delay:-0.63s"><circle cx="1005.2" cy="410.8" r="7" fill="url(#lampT)"/><circle cx="1005.2" cy="410.8" r="1.55" fill="#fffbeb"/></g><g class="light" style="animation-delay:-3.02s"><circle cx="859.9" cy="391.9" r="7" fill="url(#lampT)"/><circle cx="859.9" cy="391.9" r="1.55" fill="#fffbeb"/></g><g class="light" style="animation-delay:-1.56s"><circle cx="1014.2" cy="59.9" r="7" fill="url(#lampT)"/><circle cx="1014.2" cy="59.9" r="1.55" fill="#fffbeb"/></g><g class="light" style="animation-delay:-3.59s"><circle cx="953.2" cy="35.8" r="7" fill="url(#lampT)"/><circle cx="953.2" cy="35.8" r="1.55" fill="#fffbeb"/></g></g>
<text class="lbl fill" x="894.1" y="66.8" text-anchor="end" style="fill:#c0c3c9">DARWIN</text>
<text class="lbl fill" x="955.7" y="120.1" text-anchor="start" style="fill:#c0c3c9">KATHERINE</text>
<text class="lbl fill" x="1006.8" y="257.4" text-anchor="start" style="fill:#c0c3c9">TENNANT CREEK</text>
<text class="lbl fill" x="998.6" y="364.7" text-anchor="start" style="fill:#c0c3c9">ALICE SPRINGS</text>
<circle class="ripple" cx="906.1" cy="63.3" r="150" fill="none" stroke="#35d3ee" stroke-width="1.2" style="animation-delay:0s"/>
<circle class="ripple" cx="906.1" cy="63.3" r="150" fill="none" stroke="#35d3ee" stroke-width="1.2" style="animation-delay:2s"/>
<circle class="ripple" cx="906.1" cy="63.3" r="150" fill="none" stroke="#35d3ee" stroke-width="1.2" style="animation-delay:4s"/>
<text x="64" y="92" class="kicker rise">DATA SCIENTIST · DARWIN, NORTHERN TERRITORY</text>
<g clip-path="url(#namec)"><g class="reveal"><text x="60" y="174" class="name" fill="url(#nameg)">Harsh Rastogi</text></g></g>
<g class="rise" style="animation-delay:1s"><text x="64" y="232" class="lead">I turn Territory data into <tspan fill="#35d3ee">decisions</tspan>,</text><text x="64" y="270" class="lead">not just dashboards.</text></g>
<text x="64" y="322" class="tick" style="fill:#31d46c">&gt;</text>
<clipPath id="ty0"><rect x="88" y="303" width="0" height="28.5"><animate attributeName="width" dur="20s" repeatCount="indefinite" calcMode="discrete" keyTimes="0.0000;0.0000;0.0029;0.0058;0.0088;0.0117;0.0146;0.0175;0.0205;0.0234;0.0263;0.0292;0.0322;0.0351;0.0380;0.0409;0.0438;0.0468;0.0497;0.0526;0.0555;0.0585;0.0614;0.0643;0.0672;0.0702;0.0731;0.0760;0.1720;0.1745;0.1770;0.1795;0.1820;0.1845;0.1870;0.1895;0.1920;1.0000" values="0;0;11.4;22.8;34.2;45.6;57;68.4;79.8;91.2;102.6;114;125.4;136.8;148.2;159.6;171;182.4;193.8;205.2;216.6;228;239.4;250.8;262.2;273.6;285;296.4;296.4;259.4;222.3;185.3;148.2;111.2;74.1;37.1;0;0"/></rect></clipPath><text clip-path="url(#ty0)" x="88" y="322" class="tick">environmental intelligence</text><rect x="88" y="306.42" width="10.3" height="19.4" fill="#35d3ee" opacity="0"><animate attributeName="x" dur="20s" repeatCount="indefinite" calcMode="discrete" keyTimes="0.0000;0.0000;0.0029;0.0058;0.0088;0.0117;0.0146;0.0175;0.0205;0.0234;0.0263;0.0292;0.0322;0.0351;0.0380;0.0409;0.0438;0.0468;0.0497;0.0526;0.0555;0.0585;0.0614;0.0643;0.0672;0.0702;0.0731;0.0760;0.1720;0.1745;0.1770;0.1795;0.1820;0.1845;0.1870;0.1895;0.1920;1.0000" values="88;88;99.4;110.8;122.2;133.6;145;156.4;167.8;179.2;190.6;202;213.4;224.8;236.2;247.6;259;270.4;281.8;293.2;304.6;316;327.4;338.8;350.2;361.6;373;384.4;384.4;347.4;310.3;273.2;236.2;199.2;162.1;125.1;88;88"/><animate attributeName="opacity" dur="20s" repeatCount="indefinite" calcMode="discrete" keyTimes="0;0.0000;0.1920" values="0;0.85;0"/></rect><clipPath id="ty1"><rect x="88" y="303" width="0" height="28.5"><animate attributeName="width" dur="20s" repeatCount="indefinite" calcMode="discrete" keyTimes="0.0000;0.2000;0.2024;0.2047;0.2071;0.2095;0.2119;0.2142;0.2166;0.2190;0.2214;0.2237;0.2261;0.2285;0.2309;0.2333;0.2356;0.2380;0.2404;0.2427;0.2451;0.2475;0.2499;0.2522;0.2546;0.2570;0.2594;0.2617;0.2641;0.2665;0.2689;0.2712;0.2736;0.2760;0.3720;0.3745;0.3770;0.3795;0.3820;0.3845;0.3870;0.3895;0.3920;1.0000" values="0;0;11.4;22.8;34.2;45.6;57;68.4;79.8;91.2;102.6;114;125.4;136.8;148.2;159.6;171;182.4;193.8;205.2;216.6;228;239.4;250.8;262.2;273.6;285;296.4;307.8;319.2;330.6;342;353.4;364.8;364.8;319.2;273.6;228;182.4;136.8;91.2;45.6;0;0"/></rect></clipPath><text clip-path="url(#ty1)" x="88" y="322" class="tick">spatial analysis &amp; geostatistics</text><rect x="88" y="306.42" width="10.3" height="19.4" fill="#35d3ee" opacity="0"><animate attributeName="x" dur="20s" repeatCount="indefinite" calcMode="discrete" keyTimes="0.0000;0.2000;0.2024;0.2047;0.2071;0.2095;0.2119;0.2142;0.2166;0.2190;0.2214;0.2237;0.2261;0.2285;0.2309;0.2333;0.2356;0.2380;0.2404;0.2427;0.2451;0.2475;0.2499;0.2522;0.2546;0.2570;0.2594;0.2617;0.2641;0.2665;0.2689;0.2712;0.2736;0.2760;0.3720;0.3745;0.3770;0.3795;0.3820;0.3845;0.3870;0.3895;0.3920;1.0000" values="88;88;99.4;110.8;122.2;133.6;145;156.4;167.8;179.2;190.6;202;213.4;224.8;236.2;247.6;259;270.4;281.8;293.2;304.6;316;327.4;338.8;350.2;361.6;373;384.4;395.8;407.2;418.6;430;441.4;452.8;452.8;407.2;361.6;316;270.4;224.8;179.2;133.6;88;88"/><animate attributeName="opacity" dur="20s" repeatCount="indefinite" calcMode="discrete" keyTimes="0;0.2000;0.3920" values="0;0.85;0"/></rect><clipPath id="ty2"><rect x="88" y="303" width="0" height="28.5"><animate attributeName="width" dur="20s" repeatCount="indefinite" calcMode="discrete" keyTimes="0.0000;0.4000;0.4028;0.4056;0.4084;0.4113;0.4141;0.4169;0.4197;0.4225;0.4253;0.4281;0.4310;0.4338;0.4366;0.4394;0.4422;0.4450;0.4479;0.4507;0.4535;0.4563;0.4591;0.4619;0.4647;0.4676;0.4704;0.4732;0.4760;0.5720;0.5745;0.5770;0.5795;0.5820;0.5845;0.5870;0.5895;0.5920;1.0000" values="0;0;11.4;22.8;34.2;45.6;57;68.4;79.8;91.2;102.6;114;125.4;136.8;148.2;159.6;171;182.4;193.8;205.2;216.6;228;239.4;250.8;262.2;273.6;285;296.4;307.8;307.8;269.3;230.9;192.4;153.9;115.4;77;38.5;0;0"/></rect></clipPath><text clip-path="url(#ty2)" x="88" y="322" class="tick">machine learning that ships</text><rect x="88" y="306.42" width="10.3" height="19.4" fill="#35d3ee" opacity="0"><animate attributeName="x" dur="20s" repeatCount="indefinite" calcMode="discrete" keyTimes="0.0000;0.4000;0.4028;0.4056;0.4084;0.4113;0.4141;0.4169;0.4197;0.4225;0.4253;0.4281;0.4310;0.4338;0.4366;0.4394;0.4422;0.4450;0.4479;0.4507;0.4535;0.4563;0.4591;0.4619;0.4647;0.4676;0.4704;0.4732;0.4760;0.5720;0.5745;0.5770;0.5795;0.5820;0.5845;0.5870;0.5895;0.5920;1.0000" values="88;88;99.4;110.8;122.2;133.6;145;156.4;167.8;179.2;190.6;202;213.4;224.8;236.2;247.6;259;270.4;281.8;293.2;304.6;316;327.4;338.8;350.2;361.6;373;384.4;395.8;395.8;357.3;318.9;280.4;241.9;203.4;164.9;126.5;88;88"/><animate attributeName="opacity" dur="20s" repeatCount="indefinite" calcMode="discrete" keyTimes="0;0.4000;0.5920" values="0;0.85;0"/></rect><clipPath id="ty3"><rect x="88" y="303" width="0" height="28.5"><animate attributeName="width" dur="20s" repeatCount="indefinite" calcMode="discrete" keyTimes="0.0000;0.6000;0.6023;0.6046;0.6069;0.6092;0.6115;0.6138;0.6161;0.6184;0.6207;0.6230;0.6253;0.6276;0.6299;0.6322;0.6345;0.6368;0.6392;0.6415;0.6438;0.6461;0.6484;0.6507;0.6530;0.6553;0.6576;0.6599;0.6622;0.6645;0.6668;0.6691;0.6714;0.6737;0.6760;0.7720;0.7745;0.7770;0.7795;0.7820;0.7845;0.7870;0.7895;0.7920;1.0000" values="0;0;11.4;22.8;34.2;45.6;57;68.4;79.8;91.2;102.6;114;125.4;136.8;148.2;159.6;171;182.4;193.8;205.2;216.6;228;239.4;250.8;262.2;273.6;285;296.4;307.8;319.2;330.6;342;353.4;364.8;376.2;376.2;329.2;282.1;235.1;188.1;141.1;94;47;0;0"/></rect></clipPath><text clip-path="url(#ty3)" x="88" y="322" class="tick">civic tech for remote communities</text><rect x="88" y="306.42" width="10.3" height="19.4" fill="#35d3ee" opacity="0"><animate attributeName="x" dur="20s" repeatCount="indefinite" calcMode="discrete" keyTimes="0.0000;0.6000;0.6023;0.6046;0.6069;0.6092;0.6115;0.6138;0.6161;0.6184;0.6207;0.6230;0.6253;0.6276;0.6299;0.6322;0.6345;0.6368;0.6392;0.6415;0.6438;0.6461;0.6484;0.6507;0.6530;0.6553;0.6576;0.6599;0.6622;0.6645;0.6668;0.6691;0.6714;0.6737;0.6760;0.7720;0.7745;0.7770;0.7795;0.7820;0.7845;0.7870;0.7895;0.7920;1.0000" values="88;88;99.4;110.8;122.2;133.6;145;156.4;167.8;179.2;190.6;202;213.4;224.8;236.2;247.6;259;270.4;281.8;293.2;304.6;316;327.4;338.8;350.2;361.6;373;384.4;395.8;407.2;418.6;430;441.4;452.8;464.2;464.2;417.2;370.1;323.1;276.1;229.1;182.1;135;88;88"/><animate attributeName="opacity" dur="20s" repeatCount="indefinite" calcMode="discrete" keyTimes="0;0.6000;0.7920" values="0;0.85;0"/></rect><clipPath id="ty4"><rect x="88" y="303" width="0" height="28.5"><animate attributeName="width" dur="20s" repeatCount="indefinite" calcMode="discrete" keyTimes="0.0000;0.8000;0.8027;0.8054;0.8081;0.8109;0.8136;0.8163;0.8190;0.8217;0.8244;0.8271;0.8299;0.8326;0.8353;0.8380;0.8407;0.8434;0.8461;0.8489;0.8516;0.8543;0.8570;0.8597;0.8624;0.8651;0.8679;0.8706;0.8733;0.8760;0.9720;0.9745;0.9770;0.9795;0.9820;0.9845;0.9870;0.9895;0.9920;1.0000" values="0;0;11.4;22.8;34.2;45.6;57;68.4;79.8;91.2;102.6;114;125.4;136.8;148.2;159.6;171;182.4;193.8;205.2;216.6;228;239.4;250.8;262.2;273.6;285;296.4;307.8;319.2;319.2;279.3;239.4;199.5;159.6;119.7;79.8;39.9;0;0"/></rect></clipPath><text clip-path="url(#ty4)" x="88" y="322" class="tick">open data → tools people use</text><rect x="88" y="306.42" width="10.3" height="19.4" fill="#35d3ee" opacity="0"><animate attributeName="x" dur="20s" repeatCount="indefinite" calcMode="discrete" keyTimes="0.0000;0.8000;0.8027;0.8054;0.8081;0.8109;0.8136;0.8163;0.8190;0.8217;0.8244;0.8271;0.8299;0.8326;0.8353;0.8380;0.8407;0.8434;0.8461;0.8489;0.8516;0.8543;0.8570;0.8597;0.8624;0.8651;0.8679;0.8706;0.8733;0.8760;0.9720;0.9745;0.9770;0.9795;0.9820;0.9845;0.9870;0.9895;0.9920;1.0000" values="88;88;99.4;110.8;122.2;133.6;145;156.4;167.8;179.2;190.6;202;213.4;224.8;236.2;247.6;259;270.4;281.8;293.2;304.6;316;327.4;338.8;350.2;361.6;373;384.4;395.8;407.2;407.2;367.3;327.4;287.5;247.6;207.7;167.8;127.9;88;88"/><animate attributeName="opacity" dur="20s" repeatCount="indefinite" calcMode="discrete" keyTimes="0;0.8000;0.9920" values="0;0.85;0"/></rect>
<g class="rise" style="animation-delay:1.4s"><g><rect x="64" y="360" width="225.6" height="28" rx="14" fill="#17181a" stroke="#303237"/><text x="76" y="378.2" style="font:500 12px 'IBM Plex Mono',ui-monospace,SFMono-Regular,Menlo,Consolas,'Liberation Mono',monospace;fill:#c0c3c9">MASTER OF DATA SCIENCE · CDU</text></g></g>
<g class="rise" style="animation-delay:1.4s"><g><rect x="299.6" y="360" width="146.4" height="28" rx="14" fill="#17181a" stroke="#303237"/><text x="311.6" y="378.2" style="font:500 12px 'IBM Plex Mono',ui-monospace,SFMono-Regular,Menlo,Consolas,'Liberation Mono',monospace;fill:#c0c3c9">GOVHACK · NT LEAD</text></g></g>
<g class="rise" style="animation-delay:1.4s"><rect x="456" y="360" width="171.6" height="28" rx="14" fill="#062213" stroke="#0d6b35"/><circle class="live" cx="473" cy="374" r="4" fill="#31d46c"/><text x="486" y="378.2" style="font:500 12px 'IBM Plex Mono',ui-monospace,SFMono-Regular,Menlo,Consolas,'Liberation Mono',monospace;fill:#86eaa9">AVAILABLE FOR WORK</text></g>
<text x="64" y="428" class="tag">12.4637°S  130.8444°E  ·  TWELVE SHIPPED PROJECTS ACROSS THE NT</text>
</svg>
