<svg xmlns="http://www.w3.org/2000/svg" width="560" height="296" viewBox="0 0 560 296" role="img" aria-labelledby="t d">
<title id="t">Avian Observatory</title>
<desc id="d">A scrolling spectrogram of bird calls. BirdNET's label, Bicknell's Thrush, is struck out; the regional model's label is correct.</desc>
<style>
.ttl{font:600 23px 'Plus Jakarta Sans','Segoe UI','Helvetica Neue',Helvetica,Arial,sans-serif;fill:#e6e8ec;letter-spacing:-.01em}
.txt{font:400 15px 'Plus Jakarta Sans','Segoe UI','Helvetica Neue',Helvetica,Arial,sans-serif;fill:#9ca0a8}
.stk{font:400 12.5px 'Plus Jakarta Sans','Segoe UI','Helvetica Neue',Helvetica,Arial,sans-serif;fill:#63666e}
.lbl{font:400 11.5px 'Plus Jakarta Sans','Segoe UI','Helvetica Neue',Helvetica,Arial,sans-serif;fill:#9ca0a8}
.lbl2{font:500 11.5px 'Plus Jakarta Sans','Segoe UI','Helvetica Neue',Helvetica,Arial,sans-serif;fill:#e6e8ec}
.spec{animation:spec 18s linear infinite}@keyframes spec{from{transform:translateX(0)}to{transform:translateX(-560px)}}@media (prefers-reduced-motion: reduce){*{animation-duration:0s!important;animation-delay:0s!important;animation-iteration-count:1!important}}</style>
<defs><clipPath id="band"><path d="M1,176 V9 a8,8 0 0 1 8,-8 H551 a8,8 0 0 1 8,8 V176 Z"/></clipPath></defs>
<rect x=".5" y=".5" width="559" height="295" rx="8.5" fill="#101112" stroke="#26282c"/>
<g clip-path="url(#band)">
<g class="spec"><rect x="0" y="67" width="10" height="11" fill="#0090ab" opacity="0.10"/><rect x="0" y="78" width="10" height="11" fill="#0090ab" opacity="0.06"/><rect x="0" y="89" width="10" height="11" fill="#0090ab" opacity="0.09"/><rect x="0" y="100" width="10" height="11" fill="#0090ab" opacity="0.08"/><rect x="0" y="133" width="10" height="11" fill="#0090ab" opacity="0.06"/><rect x="10" y="67" width="10" height="11" fill="#0090ab" opacity="0.18"/><rect x="10" y="78" width="10" height="11" fill="#0090ab" opacity="0.08"/><rect x="10" y="89" width="10" height="11" fill="#0090ab" opacity="0.12"/><rect x="10" y="100" width="10" height="11" fill="#0090ab" opacity="0.06"/><rect x="10" y="111" width="10" height="11" fill="#0090ab" opacity="0.07"/><rect x="20" y="56" width="10" height="11" fill="#0090ab" opacity="0.10"/><rect x="20" y="67" width="10" height="11" fill="#0090ab" opacity="0.13"/><rect x="20" y="78" width="10" height="11" fill="#0090ab" opacity="0.11"/><rect x="20" y="100" width="10" height="11" fill="#0090ab" opacity="0.10"/><rect x="20" y="111" width="10" height="11" fill="#0090ab" opacity="0.06"/><rect x="30" y="56" width="10" height="11" fill="#0090ab" opacity="0.09"/><rect x="30" y="67" width="10" height="11" fill="#0090ab" opacity="0.13"/><rect x="30" y="78" width="10" height="11" fill="#0090ab" opacity="0.14"/><rect x="30" y="89" width="10" height="11" fill="#0090ab" opacity="0.10"/><rect x="30" y="100" width="10" height="11" fill="#0090ab" opacity="0.12"/><rect x="30" y="122" width="10" height="11" fill="#0090ab" opacity="0.07"/><rect x="40" y="56" width="10" height="11" fill="#0090ab" opacity="0.18"/><rect x="40" y="100" width="10" height="11" fill="#0090ab" opacity="0.12"/><rect x="40" y="122" width="10" height="11" fill="#0090ab" opacity="0.06"/><rect x="50" y="56" width="10" height="11" fill="#0090ab" opacity="0.08"/><rect x="50" y="67" width="10" height="11" fill="#0090ab" opacity="0.06"/><rect x="50" y="78" width="10" height="11" fill="#0090ab" opacity="0.10"/><rect x="50" y="89" width="10" height="11" fill="#0090ab" opacity="0.08"/><rect x="50" y="100" width="10" height="11" fill="#0090ab" opacity="0.11"/><rect x="50" y="111" width="10" height="11" fill="#0090ab" opacity="0.07"/><rect x="50" y="122" width="10" height="11" fill="#0090ab" opacity="0.08"/><rect x="50" y="133" width="10" height="11" fill="#0090ab" opacity="0.06"/><rect x="50" y="144" width="10" height="11" fill="#0090ab" opacity="0.05"/><rect x="60" y="56" width="10" height="11" fill="#0090ab" opacity="0.13"/><rect x="60" y="78" width="10" height="11" fill="#0090ab" opacity="0.14"/><rect x="60" y="89" width="10" height="11" fill="#0090ab" opacity="0.14"/><rect x="60" y="100" width="10" height="11" fill="#0090ab" opacity="0.11"/><rect x="60" y="111" width="10" height="11" fill="#0090ab" opacity="0.06"/><rect x="60" y="122" width="10" height="11" fill="#0090ab" opacity="0.06"/><rect x="70" y="56" width="10" height="11" fill="#0090ab" opacity="0.11"/><rect x="70" y="67" width="10" height="11" fill="#0090ab" opacity="0.05"/><rect x="70" y="89" width="10" height="11" fill="#0090ab" opacity="0.12"/><rect x="70" y="100" width="10" height="11" fill="#0090ab" opacity="0.13"/><rect x="70" y="122" width="10" height="11" fill="#0090ab" opacity="0.07"/><rect x="80" y="56" width="10" height="11" fill="#0090ab" opacity="0.06"/><rect x="80" y="67" width="10" height="11" fill="#0090ab" opacity="0.14"/><rect x="80" y="78" width="10" height="11" fill="#0090ab" opacity="0.14"/><rect x="80" y="100" width="10" height="11" fill="#0090ab" opacity="0.08"/><rect x="80" y="122" width="10" height="11" fill="#0090ab" opacity="0.06"/><rect x="90" y="56" width="10" height="11" fill="#0090ab" opacity="0.20"/><rect x="90" y="67" width="10" height="11" fill="#0090ab" opacity="0.09"/><rect x="90" y="78" width="10" height="11" fill="#0090ab" opacity="0.16"/><rect x="90" y="111" width="10" height="11" fill="#0090ab" opacity="0.06"/><rect x="100" y="56" width="10" height="11" fill="#0090ab" opacity="0.12"/><rect x="100" y="89" width="10" height="11" fill="#0090ab" opacity="0.13"/><rect x="100" y="111" width="10" height="11" fill="#0090ab" opacity="0.10"/><rect x="100" y="122" width="10" height="11" fill="#0090ab" opacity="0.08"/><rect x="110" y="56" width="10" height="11" fill="#0090ab" opacity="0.10"/><rect x="110" y="67" width="10" height="11" fill="#0090ab" opacity="0.12"/><rect x="110" y="78" width="10" height="11" fill="#0090ab" opacity="0.10"/><rect x="110" y="89" width="10" height="11" fill="#0090ab" opacity="0.08"/><rect x="110" y="100" width="10" height="11" fill="#0090ab" opacity="0.08"/><rect x="110" y="111" width="10" height="11" fill="#0090ab" opacity="0.10"/><rect x="120" y="67" width="10" height="11" fill="#0090ab" opacity="0.05"/><rect x="120" y="78" width="10" height="11" fill="#0090ab" opacity="0.16"/><rect x="120" y="89" width="10" height="11" fill="#0090ab" opacity="0.08"/><rect x="120" y="100" width="10" height="11" fill="#0090ab" opacity="0.07"/><rect x="130" y="56" width="10" height="11" fill="#0090ab" opacity="0.12"/><rect x="130" y="67" width="10" height="11" fill="#0090ab" opacity="0.11"/><rect x="130" y="89" width="10" height="11" fill="#0090ab" opacity="0.09"/><rect x="130" y="100" width="10" height="11" fill="#0090ab" opacity="0.06"/><rect x="130" y="111" width="10" height="11" fill="#0090ab" opacity="0.07"/><rect x="130" y="133" width="10" height="11" fill="#0090ab" opacity="0.05"/><rect x="140" y="78" width="10" height="11" fill="#0090ab" opacity="0.11"/><rect x="140" y="89" width="10" height="11" fill="#0090ab" opacity="0.14"/><rect x="140" y="122" width="10" height="11" fill="#0090ab" opacity="0.05"/><rect x="150" y="56" width="10" height="11" fill="#0090ab" opacity="0.06"/><rect x="150" y="67" width="10" height="11" fill="#0090ab" opacity="0.07"/><rect x="150" y="78" width="10" height="11" fill="#0090ab" opacity="0.10"/><rect x="150" y="111" width="10" height="11" fill="#0090ab" opacity="0.08"/><rect x="160" y="56" width="10" height="11" fill="#0090ab" opacity="0.06"/><rect x="160" y="78" width="10" height="11" fill="#0090ab" opacity="0.13"/><rect x="160" y="122" width="10" height="11" fill="#0090ab" opacity="0.06"/><rect x="170" y="56" width="10" height="11" fill="#0090ab" opacity="0.07"/><rect x="170" y="67" width="10" height="11" fill="#0090ab" opacity="0.15"/><rect x="170" y="78" width="10" height="11" fill="#0090ab" opacity="0.07"/><rect x="170" y="89" width="10" height="11" fill="#0090ab" opacity="0.12"/><rect x="170" y="122" width="10" height="11" fill="#0090ab" opacity="0.06"/><rect x="170" y="133" width="10" height="11" fill="#0090ab" opacity="0.06"/><rect x="180" y="78" width="10" height="11" fill="#0090ab" opacity="0.09"/><rect x="180" y="100" width="10" height="11" fill="#0090ab" opacity="0.10"/><rect x="180" y="111" width="10" height="11" fill="#0090ab" opacity="0.09"/><rect x="190" y="56" width="10" height="11" fill="#0090ab" opacity="0.13"/><rect x="190" y="67" width="10" height="11" fill="#0090ab" opacity="0.15"/><rect x="190" y="78" width="10" height="11" fill="#0090ab" opacity="0.06"/><rect x="190" y="111" width="10" height="11" fill="#0090ab" opacity="0.09"/><rect x="200" y="56" width="10" height="11" fill="#0090ab" opacity="0.08"/><rect x="200" y="67" width="10" height="11" fill="#0090ab" opacity="0.07"/><rect x="200" y="78" width="10" height="11" fill="#0090ab" opacity="0.15"/><rect x="200" y="111" width="10" height="11" fill="#0090ab" opacity="0.10"/><rect x="200" y="122" width="10" height="11" fill="#0090ab" opacity="0.08"/><rect x="200" y="133" width="10" height="11" fill="#0090ab" opacity="0.07"/><rect x="210" y="56" width="10" height="11" fill="#0090ab" opacity="0.19"/><rect x="210" y="67" width="10" height="11" fill="#0090ab" opacity="0.17"/><rect x="210" y="89" width="10" height="11" fill="#0090ab" opacity="0.11"/><rect x="210" y="100" width="10" height="11" fill="#0090ab" opacity="0.11"/><rect x="210" y="111" width="10" height="11" fill="#0090ab" opacity="0.07"/><rect x="220" y="78" width="10" height="11" fill="#0090ab" opacity="0.10"/><rect x="220" y="100" width="10" height="11" fill="#0090ab" opacity="0.10"/><rect x="220" y="122" width="10" height="11" fill="#0090ab" opacity="0.08"/><rect x="230" y="56" width="10" height="11" fill="#0090ab" opacity="0.18"/><rect x="230" y="67" width="10" height="11" fill="#0090ab" opacity="0.16"/><rect x="230" y="78" width="10" height="11" fill="#0090ab" opacity="0.09"/><rect x="230" y="100" width="10" height="11" fill="#0090ab" opacity="0.09"/><rect x="240" y="56" width="10" height="11" fill="#0090ab" opacity="0.08"/><rect x="240" y="67" width="10" height="11" fill="#0090ab" opacity="0.17"/><rect x="240" y="78" width="10" height="11" fill="#0090ab" opacity="0.10"/><rect x="240" y="111" width="10" height="11" fill="#0090ab" opacity="0.09"/><rect x="240" y="133" width="10" height="11" fill="#0090ab" opacity="0.06"/><rect x="250" y="67" width="10" height="11" fill="#0090ab" opacity="0.10"/><rect x="250" y="78" width="10" height="11" fill="#0090ab" opacity="0.13"/><rect x="250" y="100" width="10" height="11" fill="#0090ab" opacity="0.10"/><rect x="250" y="111" width="10" height="11" fill="#0090ab" opacity="0.10"/><rect x="250" y="122" width="10" height="11" fill="#0090ab" opacity="0.07"/><rect x="250" y="133" width="10" height="11" fill="#0090ab" opacity="0.06"/><rect x="260" y="56" width="10" height="11" fill="#0090ab" opacity="0.13"/><rect x="260" y="67" width="10" height="11" fill="#0090ab" opacity="0.16"/><rect x="260" y="111" width="10" height="11" fill="#0090ab" opacity="0.06"/><rect x="270" y="111" width="10" height="11" fill="#0090ab" opacity="0.11"/><rect x="270" y="122" width="10" height="11" fill="#0090ab" opacity="0.08"/><rect x="280" y="56" width="10" height="11" fill="#0090ab" opacity="0.06"/><rect x="280" y="67" width="10" height="11" fill="#0090ab" opacity="0.06"/><rect x="280" y="78" width="10" height="11" fill="#0090ab" opacity="0.06"/><rect x="280" y="89" width="10" height="11" fill="#0090ab" opacity="0.09"/><rect x="280" y="100" width="10" height="11" fill="#0090ab" opacity="0.07"/><rect x="290" y="56" width="10" height="11" fill="#0090ab" opacity="0.11"/><rect x="290" y="67" width="10" height="11" fill="#0090ab" opacity="0.13"/><rect x="290" y="78" width="10" height="11" fill="#0090ab" opacity="0.06"/><rect x="290" y="122" width="10" height="11" fill="#0090ab" opacity="0.05"/><rect x="290" y="133" width="10" height="11" fill="#0090ab" opacity="0.06"/><rect x="300" y="56" width="10" height="11" fill="#0090ab" opacity="0.16"/><rect x="300" y="67" width="10" height="11" fill="#0090ab" opacity="0.11"/><rect x="300" y="78" width="10" height="11" fill="#0090ab" opacity="0.07"/><rect x="300" y="89" width="10" height="11" fill="#0090ab" opacity="0.05"/><rect x="300" y="100" width="10" height="11" fill="#0090ab" opacity="0.06"/><rect x="300" y="111" width="10" height="11" fill="#0090ab" opacity="0.08"/><rect x="310" y="67" width="10" height="11" fill="#0090ab" opacity="0.10"/><rect x="310" y="78" width="10" height="11" fill="#0090ab" opacity="0.11"/><rect x="310" y="100" width="10" height="11" fill="#0090ab" opacity="0.05"/><rect x="310" y="122" width="10" height="11" fill="#0090ab" opacity="0.08"/><rect x="310" y="133" width="10" height="11" fill="#0090ab" opacity="0.07"/><rect x="320" y="56" width="10" height="11" fill="#0090ab" opacity="0.18"/><rect x="320" y="67" width="10" height="11" fill="#0090ab" opacity="0.14"/><rect x="320" y="89" width="10" height="11" fill="#0090ab" opacity="0.07"/><rect x="320" y="111" width="10" height="11" fill="#0090ab" opacity="0.09"/><rect x="320" y="122" width="10" height="11" fill="#0090ab" opacity="0.06"/><rect x="320" y="133" width="10" height="11" fill="#0090ab" opacity="0.06"/><rect x="330" y="56" width="10" height="11" fill="#0090ab" opacity="0.13"/><rect x="330" y="67" width="10" height="11" fill="#0090ab" opacity="0.13"/><rect x="330" y="78" width="10" height="11" fill="#0090ab" opacity="0.09"/><rect x="330" y="100" width="10" height="11" fill="#0090ab" opacity="0.07"/><rect x="330" y="133" width="10" height="11" fill="#0090ab" opacity="0.06"/><rect x="340" y="78" width="10" height="11" fill="#0090ab" opacity="0.14"/><rect x="340" y="111" width="10" height="11" fill="#0090ab" opacity="0.09"/><rect x="340" y="133" width="10" height="11" fill="#0090ab" opacity="0.06"/><rect x="350" y="56" width="10" height="11" fill="#0090ab" opacity="0.17"/><rect x="350" y="67" width="10" height="11" fill="#0090ab" opacity="0.17"/><rect x="350" y="78" width="10" height="11" fill="#0090ab" opacity="0.09"/><rect x="350" y="89" width="10" height="11" fill="#0090ab" opacity="0.12"/><rect x="350" y="111" width="10" height="11" fill="#0090ab" opacity="0.08"/><rect x="350" y="133" width="10" height="11" fill="#0090ab" opacity="0.05"/><rect x="360" y="56" width="10" height="11" fill="#0090ab" opacity="0.15"/><rect x="360" y="67" width="10" height="11" fill="#0090ab" opacity="0.17"/><rect x="360" y="100" width="10" height="11" fill="#0090ab" opacity="0.07"/><rect x="360" y="111" width="10" height="11" fill="#0090ab" opacity="0.09"/><rect x="370" y="56" width="10" height="11" fill="#0090ab" opacity="0.12"/><rect x="370" y="67" width="10" height="11" fill="#0090ab" opacity="0.14"/><rect x="370" y="78" width="10" height="11" fill="#0090ab" opacity="0.06"/><rect x="370" y="89" width="10" height="11" fill="#0090ab" opacity="0.05"/><rect x="370" y="100" width="10" height="11" fill="#0090ab" opacity="0.05"/><rect x="380" y="56" width="10" height="11" fill="#0090ab" opacity="0.19"/><rect x="380" y="67" width="10" height="11" fill="#0090ab" opacity="0.07"/><rect x="380" y="78" width="10" height="11" fill="#0090ab" opacity="0.12"/><rect x="380" y="100" width="10" height="11" fill="#0090ab" opacity="0.09"/><rect x="380" y="111" width="10" height="11" fill="#0090ab" opacity="0.08"/><rect x="380" y="122" width="10" height="11" fill="#0090ab" opacity="0.06"/><rect x="390" y="56" width="10" height="11" fill="#0090ab" opacity="0.13"/><rect x="390" y="67" width="10" height="11" fill="#0090ab" opacity="0.16"/><rect x="390" y="100" width="10" height="11" fill="#0090ab" opacity="0.09"/><rect x="390" y="111" width="10" height="11" fill="#0090ab" opacity="0.10"/><rect x="400" y="89" width="10" height="11" fill="#0090ab" opacity="0.08"/><rect x="400" y="122" width="10" height="11" fill="#0090ab" opacity="0.06"/><rect x="400" y="133" width="10" height="11" fill="#0090ab" opacity="0.07"/><rect x="410" y="56" width="10" height="11" fill="#0090ab" opacity="0.14"/><rect x="410" y="67" width="10" height="11" fill="#0090ab" opacity="0.08"/><rect x="410" y="78" width="10" height="11" fill="#0090ab" opacity="0.14"/><rect x="410" y="89" width="10" height="11" fill="#0090ab" opacity="0.08"/><rect x="420" y="67" width="10" height="11" fill="#0090ab" opacity="0.07"/><rect x="420" y="78" width="10" height="11" fill="#0090ab" opacity="0.05"/><rect x="420" y="89" width="10" height="11" fill="#0090ab" opacity="0.11"/><rect x="420" y="111" width="10" height="11" fill="#0090ab" opacity="0.11"/><rect x="430" y="56" width="10" height="11" fill="#0090ab" opacity="0.17"/><rect x="430" y="67" width="10" height="11" fill="#0090ab" opacity="0.15"/><rect x="430" y="78" width="10" height="11" fill="#0090ab" opacity="0.09"/><rect x="430" y="89" width="10" height="11" fill="#0090ab" opacity="0.07"/><rect x="430" y="100" width="10" height="11" fill="#0090ab" opacity="0.09"/><rect x="430" y="111" width="10" height="11" fill="#0090ab" opacity="0.09"/><rect x="430" y="133" width="10" height="11" fill="#0090ab" opacity="0.05"/><rect x="430" y="144" width="10" height="11" fill="#0090ab" opacity="0.05"/><rect x="440" y="56" width="10" height="11" fill="#0090ab" opacity="0.09"/><rect x="440" y="89" width="10" height="11" fill="#0090ab" opacity="0.10"/><rect x="440" y="100" width="10" height="11" fill="#0090ab" opacity="0.09"/><rect x="440" y="111" width="10" height="11" fill="#0090ab" opacity="0.10"/><rect x="440" y="122" width="10" height="11" fill="#0090ab" opacity="0.08"/><rect x="450" y="56" width="10" height="11" fill="#0090ab" opacity="0.05"/><rect x="450" y="78" width="10" height="11" fill="#0090ab" opacity="0.12"/><rect x="450" y="89" width="10" height="11" fill="#0090ab" opacity="0.12"/><rect x="450" y="100" width="10" height="11" fill="#0090ab" opacity="0.11"/><rect x="450" y="122" width="10" height="11" fill="#0090ab" opacity="0.08"/><rect x="460" y="56" width="10" height="11" fill="#0090ab" opacity="0.15"/><rect x="460" y="89" width="10" height="11" fill="#0090ab" opacity="0.12"/><rect x="460" y="122" width="10" height="11" fill="#0090ab" opacity="0.05"/><rect x="470" y="56" width="10" height="11" fill="#0090ab" opacity="0.07"/><rect x="470" y="67" width="10" height="11" fill="#0090ab" opacity="0.08"/><rect x="470" y="78" width="10" height="11" fill="#0090ab" opacity="0.08"/><rect x="470" y="100" width="10" height="11" fill="#0090ab" opacity="0.07"/><rect x="470" y="111" width="10" height="11" fill="#0090ab" opacity="0.10"/><rect x="480" y="56" width="10" height="11" fill="#0090ab" opacity="0.05"/><rect x="480" y="67" width="10" height="11" fill="#0090ab" opacity="0.12"/><rect x="480" y="89" width="10" height="11" fill="#0090ab" opacity="0.13"/><rect x="480" y="100" width="10" height="11" fill="#0090ab" opacity="0.12"/><rect x="480" y="122" width="10" height="11" fill="#0090ab" opacity="0.08"/><rect x="490" y="56" width="10" height="11" fill="#0090ab" opacity="0.15"/><rect x="490" y="67" width="10" height="11" fill="#0090ab" opacity="0.05"/><rect x="490" y="78" width="10" height="11" fill="#0090ab" opacity="0.11"/><rect x="490" y="89" width="10" height="11" fill="#0090ab" opacity="0.09"/><rect x="490" y="100" width="10" height="11" fill="#0090ab" opacity="0.10"/><rect x="490" y="122" width="10" height="11" fill="#0090ab" opacity="0.07"/><rect x="490" y="133" width="10" height="11" fill="#0090ab" opacity="0.07"/><rect x="500" y="56" width="10" height="11" fill="#0090ab" opacity="0.11"/><rect x="500" y="78" width="10" height="11" fill="#0090ab" opacity="0.08"/><rect x="500" y="89" width="10" height="11" fill="#0090ab" opacity="0.05"/><rect x="500" y="100" width="10" height="11" fill="#0090ab" opacity="0.09"/><rect x="500" y="111" width="10" height="11" fill="#0090ab" opacity="0.07"/><rect x="500" y="122" width="10" height="11" fill="#0090ab" opacity="0.05"/><rect x="510" y="56" width="10" height="11" fill="#0090ab" opacity="0.13"/><rect x="510" y="78" width="10" height="11" fill="#0090ab" opacity="0.15"/><rect x="510" y="89" width="10" height="11" fill="#0090ab" opacity="0.10"/><rect x="510" y="111" width="10" height="11" fill="#0090ab" opacity="0.10"/><rect x="520" y="56" width="10" height="11" fill="#0090ab" opacity="0.12"/><rect x="520" y="67" width="10" height="11" fill="#0090ab" opacity="0.10"/><rect x="520" y="78" width="10" height="11" fill="#0090ab" opacity="0.11"/><rect x="520" y="89" width="10" height="11" fill="#0090ab" opacity="0.07"/><rect x="520" y="133" width="10" height="11" fill="#0090ab" opacity="0.05"/><rect x="530" y="56" width="10" height="11" fill="#0090ab" opacity="0.11"/><rect x="530" y="67" width="10" height="11" fill="#0090ab" opacity="0.13"/><rect x="530" y="78" width="10" height="11" fill="#0090ab" opacity="0.06"/><rect x="530" y="111" width="10" height="11" fill="#0090ab" opacity="0.09"/><rect x="540" y="56" width="10" height="11" fill="#0090ab" opacity="0.15"/><rect x="540" y="67" width="10" height="11" fill="#0090ab" opacity="0.06"/><rect x="540" y="78" width="10" height="11" fill="#0090ab" opacity="0.05"/><rect x="540" y="89" width="10" height="11" fill="#0090ab" opacity="0.06"/><rect x="540" y="100" width="10" height="11" fill="#0090ab" opacity="0.07"/><rect x="540" y="111" width="10" height="11" fill="#0090ab" opacity="0.08"/><rect x="540" y="133" width="10" height="11" fill="#0090ab" opacity="0.06"/><rect x="550" y="56" width="10" height="11" fill="#0090ab" opacity="0.05"/><rect x="550" y="89" width="10" height="11" fill="#0090ab" opacity="0.11"/><rect x="550" y="100" width="10" height="11" fill="#0090ab" opacity="0.09"/><rect x="560" y="56" width="10" height="11" fill="#0090ab" opacity="0.16"/><rect x="560" y="67" width="10" height="11" fill="#0090ab" opacity="0.14"/><rect x="560" y="78" width="10" height="11" fill="#0090ab" opacity="0.10"/><rect x="560" y="100" width="10" height="11" fill="#0090ab" opacity="0.05"/><rect x="570" y="56" width="10" height="11" fill="#0090ab" opacity="0.05"/><rect x="570" y="67" width="10" height="11" fill="#0090ab" opacity="0.14"/><rect x="570" y="89" width="10" height="11" fill="#0090ab" opacity="0.12"/><rect x="570" y="100" width="10" height="11" fill="#0090ab" opacity="0.11"/><rect x="570" y="111" width="10" height="11" fill="#0090ab" opacity="0.10"/><rect x="580" y="56" width="10" height="11" fill="#0090ab" opacity="0.13"/><rect x="580" y="67" width="10" height="11" fill="#0090ab" opacity="0.18"/><rect x="580" y="78" width="10" height="11" fill="#0090ab" opacity="0.11"/><rect x="580" y="100" width="10" height="11" fill="#0090ab" opacity="0.11"/><rect x="580" y="111" width="10" height="11" fill="#0090ab" opacity="0.05"/><rect x="580" y="122" width="10" height="11" fill="#0090ab" opacity="0.05"/><rect x="580" y="133" width="10" height="11" fill="#0090ab" opacity="0.05"/><rect x="590" y="56" width="10" height="11" fill="#0090ab" opacity="0.15"/><rect x="590" y="67" width="10" height="11" fill="#0090ab" opacity="0.12"/><rect x="590" y="78" width="10" height="11" fill="#0090ab" opacity="0.08"/><rect x="590" y="89" width="10" height="11" fill="#0090ab" opacity="0.08"/><rect x="590" y="100" width="10" height="11" fill="#0090ab" opacity="0.06"/><rect x="600" y="56" width="10" height="11" fill="#0090ab" opacity="0.13"/><rect x="600" y="67" width="10" height="11" fill="#0090ab" opacity="0.08"/><rect x="600" y="78" width="10" height="11" fill="#0090ab" opacity="0.09"/><rect x="600" y="89" width="10" height="11" fill="#0090ab" opacity="0.14"/><rect x="600" y="100" width="10" height="11" fill="#0090ab" opacity="0.11"/><rect x="600" y="122" width="10" height="11" fill="#0090ab" opacity="0.07"/><rect x="610" y="56" width="10" height="11" fill="#0090ab" opacity="0.07"/><rect x="610" y="89" width="10" height="11" fill="#0090ab" opacity="0.08"/><rect x="610" y="100" width="10" height="11" fill="#0090ab" opacity="0.12"/><rect x="610" y="122" width="10" height="11" fill="#0090ab" opacity="0.08"/><rect x="620" y="56" width="10" height="11" fill="#0090ab" opacity="0.17"/><rect x="620" y="67" width="10" height="11" fill="#0090ab" opacity="0.11"/><rect x="620" y="78" width="10" height="11" fill="#0090ab" opacity="0.15"/><rect x="620" y="89" width="10" height="11" fill="#0090ab" opacity="0.10"/><rect x="620" y="100" width="10" height="11" fill="#0090ab" opacity="0.09"/><rect x="620" y="122" width="10" height="11" fill="#0090ab" opacity="0.07"/><rect x="620" y="133" width="10" height="11" fill="#0090ab" opacity="0.07"/><rect x="630" y="56" width="10" height="11" fill="#0090ab" opacity="0.09"/><rect x="630" y="67" width="10" height="11" fill="#0090ab" opacity="0.14"/><rect x="630" y="78" width="10" height="11" fill="#0090ab" opacity="0.08"/><rect x="640" y="56" width="10" height="11" fill="#0090ab" opacity="0.14"/><rect x="640" y="67" width="10" height="11" fill="#0090ab" opacity="0.10"/><rect x="640" y="78" width="10" height="11" fill="#0090ab" opacity="0.07"/><rect x="640" y="89" width="10" height="11" fill="#0090ab" opacity="0.09"/><rect x="640" y="111" width="10" height="11" fill="#0090ab" opacity="0.05"/><rect x="640" y="122" width="10" height="11" fill="#0090ab" opacity="0.07"/><rect x="650" y="56" width="10" height="11" fill="#0090ab" opacity="0.18"/><rect x="650" y="67" width="10" height="11" fill="#0090ab" opacity="0.13"/><rect x="650" y="78" width="10" height="11" fill="#0090ab" opacity="0.06"/><rect x="650" y="89" width="10" height="11" fill="#0090ab" opacity="0.05"/><rect x="650" y="100" width="10" height="11" fill="#0090ab" opacity="0.07"/><rect x="650" y="111" width="10" height="11" fill="#0090ab" opacity="0.06"/><rect x="660" y="56" width="10" height="11" fill="#0090ab" opacity="0.16"/><rect x="660" y="78" width="10" height="11" fill="#0090ab" opacity="0.08"/><rect x="670" y="78" width="10" height="11" fill="#0090ab" opacity="0.08"/><rect x="670" y="133" width="10" height="11" fill="#0090ab" opacity="0.05"/><rect x="680" y="56" width="10" height="11" fill="#0090ab" opacity="0.08"/><rect x="680" y="67" width="10" height="11" fill="#0090ab" opacity="0.07"/><rect x="680" y="89" width="10" height="11" fill="#0090ab" opacity="0.14"/><rect x="690" y="56" width="10" height="11" fill="#0090ab" opacity="0.07"/><rect x="690" y="89" width="10" height="11" fill="#0090ab" opacity="0.11"/><rect x="690" y="111" width="10" height="11" fill="#0090ab" opacity="0.09"/><rect x="690" y="133" width="10" height="11" fill="#0090ab" opacity="0.07"/><rect x="700" y="78" width="10" height="11" fill="#0090ab" opacity="0.13"/><rect x="700" y="89" width="10" height="11" fill="#0090ab" opacity="0.09"/><rect x="700" y="122" width="10" height="11" fill="#0090ab" opacity="0.06"/><rect x="700" y="133" width="10" height="11" fill="#0090ab" opacity="0.07"/><rect x="710" y="122" width="10" height="11" fill="#0090ab" opacity="0.06"/><rect x="710" y="133" width="10" height="11" fill="#0090ab" opacity="0.06"/><rect x="720" y="56" width="10" height="11" fill="#0090ab" opacity="0.19"/><rect x="720" y="67" width="10" height="11" fill="#0090ab" opacity="0.09"/><rect x="720" y="78" width="10" height="11" fill="#0090ab" opacity="0.13"/><rect x="720" y="89" width="10" height="11" fill="#0090ab" opacity="0.13"/><rect x="720" y="100" width="10" height="11" fill="#0090ab" opacity="0.12"/><rect x="720" y="144" width="10" height="11" fill="#0090ab" opacity="0.05"/><rect x="730" y="67" width="10" height="11" fill="#0090ab" opacity="0.05"/><rect x="730" y="78" width="10" height="11" fill="#0090ab" opacity="0.14"/><rect x="730" y="122" width="10" height="11" fill="#0090ab" opacity="0.06"/><rect x="730" y="133" width="10" height="11" fill="#0090ab" opacity="0.07"/><rect x="740" y="56" width="10" height="11" fill="#0090ab" opacity="0.15"/><rect x="740" y="67" width="10" height="11" fill="#0090ab" opacity="0.13"/><rect x="740" y="78" width="10" height="11" fill="#0090ab" opacity="0.14"/><rect x="740" y="89" width="10" height="11" fill="#0090ab" opacity="0.08"/><rect x="740" y="100" width="10" height="11" fill="#0090ab" opacity="0.12"/><rect x="750" y="56" width="10" height="11" fill="#0090ab" opacity="0.10"/><rect x="750" y="89" width="10" height="11" fill="#0090ab" opacity="0.10"/><rect x="750" y="100" width="10" height="11" fill="#0090ab" opacity="0.08"/><rect x="750" y="111" width="10" height="11" fill="#0090ab" opacity="0.08"/><rect x="760" y="56" width="10" height="11" fill="#0090ab" opacity="0.14"/><rect x="760" y="78" width="10" height="11" fill="#0090ab" opacity="0.08"/><rect x="760" y="89" width="10" height="11" fill="#0090ab" opacity="0.11"/><rect x="760" y="100" width="10" height="11" fill="#0090ab" opacity="0.09"/><rect x="760" y="133" width="10" height="11" fill="#0090ab" opacity="0.06"/><rect x="770" y="56" width="10" height="11" fill="#0090ab" opacity="0.18"/><rect x="770" y="67" width="10" height="11" fill="#0090ab" opacity="0.16"/><rect x="770" y="78" width="10" height="11" fill="#0090ab" opacity="0.07"/><rect x="770" y="89" width="10" height="11" fill="#0090ab" opacity="0.13"/><rect x="770" y="100" width="10" height="11" fill="#0090ab" opacity="0.09"/><rect x="780" y="56" width="10" height="11" fill="#0090ab" opacity="0.19"/><rect x="780" y="78" width="10" height="11" fill="#0090ab" opacity="0.09"/><rect x="780" y="111" width="10" height="11" fill="#0090ab" opacity="0.07"/><rect x="790" y="56" width="10" height="11" fill="#0090ab" opacity="0.13"/><rect x="790" y="67" width="10" height="11" fill="#0090ab" opacity="0.11"/><rect x="790" y="100" width="10" height="11" fill="#0090ab" opacity="0.12"/><rect x="790" y="122" width="10" height="11" fill="#0090ab" opacity="0.05"/><rect x="800" y="56" width="10" height="11" fill="#0090ab" opacity="0.12"/><rect x="800" y="67" width="10" height="11" fill="#0090ab" opacity="0.14"/><rect x="800" y="78" width="10" height="11" fill="#0090ab" opacity="0.09"/><rect x="800" y="122" width="10" height="11" fill="#0090ab" opacity="0.07"/><rect x="810" y="56" width="10" height="11" fill="#0090ab" opacity="0.19"/><rect x="810" y="78" width="10" height="11" fill="#0090ab" opacity="0.15"/><rect x="810" y="100" width="10" height="11" fill="#0090ab" opacity="0.06"/><rect x="810" y="122" width="10" height="11" fill="#0090ab" opacity="0.07"/><rect x="820" y="56" width="10" height="11" fill="#0090ab" opacity="0.15"/><rect x="820" y="67" width="10" height="11" fill="#0090ab" opacity="0.16"/><rect x="820" y="78" width="10" height="11" fill="#0090ab" opacity="0.06"/><rect x="820" y="89" width="10" height="11" fill="#0090ab" opacity="0.09"/><rect x="820" y="100" width="10" height="11" fill="#0090ab" opacity="0.06"/><rect x="820" y="122" width="10" height="11" fill="#0090ab" opacity="0.08"/><rect x="830" y="67" width="10" height="11" fill="#0090ab" opacity="0.10"/><rect x="830" y="78" width="10" height="11" fill="#0090ab" opacity="0.08"/><rect x="830" y="89" width="10" height="11" fill="#0090ab" opacity="0.11"/><rect x="840" y="56" width="10" height="11" fill="#0090ab" opacity="0.15"/><rect x="840" y="67" width="10" height="11" fill="#0090ab" opacity="0.08"/><rect x="840" y="78" width="10" height="11" fill="#0090ab" opacity="0.11"/><rect x="840" y="89" width="10" height="11" fill="#0090ab" opacity="0.09"/><rect x="840" y="122" width="10" height="11" fill="#0090ab" opacity="0.09"/><rect x="850" y="89" width="10" height="11" fill="#0090ab" opacity="0.13"/><rect x="850" y="100" width="10" height="11" fill="#0090ab" opacity="0.09"/><rect x="850" y="111" width="10" height="11" fill="#0090ab" opacity="0.09"/><rect x="850" y="122" width="10" height="11" fill="#0090ab" opacity="0.09"/><rect x="860" y="56" width="10" height="11" fill="#0090ab" opacity="0.11"/><rect x="860" y="67" width="10" height="11" fill="#0090ab" opacity="0.08"/><rect x="860" y="78" width="10" height="11" fill="#0090ab" opacity="0.15"/><rect x="860" y="89" width="10" height="11" fill="#0090ab" opacity="0.13"/><rect x="860" y="100" width="10" height="11" fill="#0090ab" opacity="0.12"/><rect x="860" y="111" width="10" height="11" fill="#0090ab" opacity="0.05"/><rect x="860" y="122" width="10" height="11" fill="#0090ab" opacity="0.07"/><rect x="860" y="144" width="10" height="11" fill="#0090ab" opacity="0.05"/><rect x="870" y="56" width="10" height="11" fill="#0090ab" opacity="0.18"/><rect x="870" y="67" width="10" height="11" fill="#0090ab" opacity="0.05"/><rect x="870" y="78" width="10" height="11" fill="#0090ab" opacity="0.15"/><rect x="870" y="111" width="10" height="11" fill="#0090ab" opacity="0.08"/><rect x="880" y="67" width="10" height="11" fill="#0090ab" opacity="0.14"/><rect x="880" y="89" width="10" height="11" fill="#0090ab" opacity="0.06"/><rect x="880" y="111" width="10" height="11" fill="#0090ab" opacity="0.08"/><rect x="880" y="122" width="10" height="11" fill="#0090ab" opacity="0.07"/><rect x="890" y="56" width="10" height="11" fill="#0090ab" opacity="0.06"/><rect x="890" y="67" width="10" height="11" fill="#0090ab" opacity="0.07"/><rect x="890" y="100" width="10" height="11" fill="#0090ab" opacity="0.10"/><rect x="890" y="111" width="10" height="11" fill="#0090ab" opacity="0.08"/><rect x="890" y="122" width="10" height="11" fill="#0090ab" opacity="0.09"/><rect x="890" y="133" width="10" height="11" fill="#0090ab" opacity="0.07"/><rect x="900" y="56" width="10" height="11" fill="#0090ab" opacity="0.07"/><rect x="900" y="78" width="10" height="11" fill="#0090ab" opacity="0.05"/><rect x="900" y="89" width="10" height="11" fill="#0090ab" opacity="0.07"/><rect x="900" y="100" width="10" height="11" fill="#0090ab" opacity="0.07"/><rect x="900" y="111" width="10" height="11" fill="#0090ab" opacity="0.06"/><rect x="900" y="133" width="10" height="11" fill="#0090ab" opacity="0.06"/><rect x="910" y="56" width="10" height="11" fill="#0090ab" opacity="0.09"/><rect x="910" y="67" width="10" height="11" fill="#0090ab" opacity="0.16"/><rect x="910" y="78" width="10" height="11" fill="#0090ab" opacity="0.13"/><rect x="910" y="111" width="10" height="11" fill="#0090ab" opacity="0.09"/><rect x="920" y="56" width="10" height="11" fill="#0090ab" opacity="0.11"/><rect x="920" y="100" width="10" height="11" fill="#0090ab" opacity="0.10"/><rect x="920" y="111" width="10" height="11" fill="#0090ab" opacity="0.05"/><rect x="920" y="122" width="10" height="11" fill="#0090ab" opacity="0.09"/><rect x="920" y="133" width="10" height="11" fill="#0090ab" opacity="0.06"/><rect x="920" y="144" width="10" height="11" fill="#0090ab" opacity="0.05"/><rect x="930" y="89" width="10" height="11" fill="#0090ab" opacity="0.06"/><rect x="940" y="67" width="10" height="11" fill="#0090ab" opacity="0.15"/><rect x="940" y="78" width="10" height="11" fill="#0090ab" opacity="0.07"/><rect x="940" y="122" width="10" height="11" fill="#0090ab" opacity="0.06"/><rect x="950" y="56" width="10" height="11" fill="#0090ab" opacity="0.16"/><rect x="950" y="89" width="10" height="11" fill="#0090ab" opacity="0.11"/><rect x="950" y="100" width="10" height="11" fill="#0090ab" opacity="0.10"/><rect x="950" y="111" width="10" height="11" fill="#0090ab" opacity="0.06"/><rect x="950" y="122" width="10" height="11" fill="#0090ab" opacity="0.07"/><rect x="960" y="78" width="10" height="11" fill="#0090ab" opacity="0.11"/><rect x="960" y="89" width="10" height="11" fill="#0090ab" opacity="0.13"/><rect x="960" y="100" width="10" height="11" fill="#0090ab" opacity="0.11"/><rect x="960" y="111" width="10" height="11" fill="#0090ab" opacity="0.05"/><rect x="960" y="122" width="10" height="11" fill="#0090ab" opacity="0.06"/><rect x="960" y="133" width="10" height="11" fill="#0090ab" opacity="0.07"/><rect x="970" y="56" width="10" height="11" fill="#0090ab" opacity="0.12"/><rect x="970" y="67" width="10" height="11" fill="#0090ab" opacity="0.08"/><rect x="970" y="78" width="10" height="11" fill="#0090ab" opacity="0.08"/><rect x="970" y="111" width="10" height="11" fill="#0090ab" opacity="0.07"/><rect x="970" y="122" width="10" height="11" fill="#0090ab" opacity="0.09"/><rect x="980" y="56" width="10" height="11" fill="#0090ab" opacity="0.07"/><rect x="980" y="67" width="10" height="11" fill="#0090ab" opacity="0.08"/><rect x="980" y="78" width="10" height="11" fill="#0090ab" opacity="0.13"/><rect x="980" y="89" width="10" height="11" fill="#0090ab" opacity="0.07"/><rect x="980" y="100" width="10" height="11" fill="#0090ab" opacity="0.12"/><rect x="990" y="56" width="10" height="11" fill="#0090ab" opacity="0.17"/><rect x="990" y="67" width="10" height="11" fill="#0090ab" opacity="0.15"/><rect x="990" y="78" width="10" height="11" fill="#0090ab" opacity="0.15"/><rect x="990" y="89" width="10" height="11" fill="#0090ab" opacity="0.09"/><rect x="990" y="111" width="10" height="11" fill="#0090ab" opacity="0.06"/><rect x="1000" y="56" width="10" height="11" fill="#0090ab" opacity="0.14"/><rect x="1000" y="67" width="10" height="11" fill="#0090ab" opacity="0.17"/><rect x="1000" y="89" width="10" height="11" fill="#0090ab" opacity="0.10"/><rect x="1000" y="111" width="10" height="11" fill="#0090ab" opacity="0.06"/><rect x="1000" y="122" width="10" height="11" fill="#0090ab" opacity="0.08"/><rect x="1000" y="133" width="10" height="11" fill="#0090ab" opacity="0.07"/><rect x="1010" y="67" width="10" height="11" fill="#0090ab" opacity="0.17"/><rect x="1010" y="89" width="10" height="11" fill="#0090ab" opacity="0.06"/><rect x="1010" y="100" width="10" height="11" fill="#0090ab" opacity="0.10"/><rect x="1010" y="133" width="10" height="11" fill="#0090ab" opacity="0.07"/><rect x="1010" y="144" width="10" height="11" fill="#0090ab" opacity="0.05"/><rect x="1020" y="56" width="10" height="11" fill="#0090ab" opacity="0.06"/><rect x="1020" y="67" width="10" height="11" fill="#0090ab" opacity="0.07"/><rect x="1020" y="111" width="10" height="11" fill="#0090ab" opacity="0.11"/><rect x="1030" y="67" width="10" height="11" fill="#0090ab" opacity="0.10"/><rect x="1030" y="78" width="10" height="11" fill="#0090ab" opacity="0.12"/><rect x="1030" y="89" width="10" height="11" fill="#0090ab" opacity="0.12"/><rect x="1030" y="100" width="10" height="11" fill="#0090ab" opacity="0.08"/><rect x="1030" y="111" width="10" height="11" fill="#0090ab" opacity="0.09"/><rect x="1030" y="144" width="10" height="11" fill="#0090ab" opacity="0.05"/><rect x="1040" y="78" width="10" height="11" fill="#0090ab" opacity="0.08"/><rect x="1040" y="100" width="10" height="11" fill="#0090ab" opacity="0.07"/><rect x="1040" y="133" width="10" height="11" fill="#0090ab" opacity="0.07"/><rect x="1050" y="56" width="10" height="11" fill="#0090ab" opacity="0.18"/><rect x="1050" y="78" width="10" height="11" fill="#0090ab" opacity="0.16"/><rect x="1050" y="89" width="10" height="11" fill="#0090ab" opacity="0.10"/><rect x="1050" y="100" width="10" height="11" fill="#0090ab" opacity="0.08"/><rect x="1050" y="133" width="10" height="11" fill="#0090ab" opacity="0.05"/><rect x="1060" y="67" width="10" height="11" fill="#0090ab" opacity="0.15"/><rect x="1060" y="78" width="10" height="11" fill="#0090ab" opacity="0.14"/><rect x="1060" y="100" width="10" height="11" fill="#0090ab" opacity="0.12"/><rect x="1060" y="111" width="10" height="11" fill="#0090ab" opacity="0.06"/><rect x="1070" y="56" width="10" height="11" fill="#0090ab" opacity="0.20"/><rect x="1070" y="67" width="10" height="11" fill="#0090ab" opacity="0.05"/><rect x="1070" y="122" width="10" height="11" fill="#0090ab" opacity="0.08"/><rect x="1080" y="56" width="10" height="11" fill="#0090ab" opacity="0.19"/><rect x="1080" y="67" width="10" height="11" fill="#0090ab" opacity="0.18"/><rect x="1080" y="78" width="10" height="11" fill="#0090ab" opacity="0.16"/><rect x="1080" y="111" width="10" height="11" fill="#0090ab" opacity="0.10"/><rect x="1080" y="133" width="10" height="11" fill="#0090ab" opacity="0.05"/><rect x="1090" y="67" width="10" height="11" fill="#0090ab" opacity="0.06"/><rect x="1090" y="78" width="10" height="11" fill="#0090ab" opacity="0.12"/><rect x="1090" y="89" width="10" height="11" fill="#0090ab" opacity="0.11"/><rect x="1090" y="100" width="10" height="11" fill="#0090ab" opacity="0.07"/><rect x="1090" y="111" width="10" height="11" fill="#0090ab" opacity="0.05"/><rect x="1100" y="56" width="10" height="11" fill="#0090ab" opacity="0.17"/><rect x="1100" y="78" width="10" height="11" fill="#0090ab" opacity="0.10"/><rect x="1100" y="89" width="10" height="11" fill="#0090ab" opacity="0.14"/><rect x="1100" y="100" width="10" height="11" fill="#0090ab" opacity="0.11"/><rect x="1100" y="122" width="10" height="11" fill="#0090ab" opacity="0.09"/><rect x="1100" y="133" width="10" height="11" fill="#0090ab" opacity="0.06"/><rect x="1110" y="56" width="10" height="11" fill="#0090ab" opacity="0.05"/><rect x="1110" y="89" width="10" height="11" fill="#0090ab" opacity="0.14"/><rect x="1110" y="100" width="10" height="11" fill="#0090ab" opacity="0.05"/><rect x="1110" y="111" width="10" height="11" fill="#0090ab" opacity="0.09"/><path transform="translate(0,0)" d="M40,94.6 q14,-12 30,8 t26,14" fill="none" stroke="#86eaa9" stroke-width="2.6" stroke-linecap="round"/><path transform="translate(0,0)" d="M150,102.6 l5,8 l5,-8 l5,8 l5,-8 l5,8 l5,-8 l5,8 l5,-8 l5,8 l5,-8" fill="none" stroke="#86eaa9" stroke-width="2.6" stroke-linecap="round"/><path transform="translate(0,0)" d="M270,122.9 c12,-4 24,-20 46,-26" fill="none" stroke="#86eaa9" stroke-width="2.6" stroke-linecap="round"/><path transform="translate(0,0)" d="M360,84 q14,-12 30,8 t26,14" fill="none" stroke="#86eaa9" stroke-width="2.6" stroke-linecap="round"/><path transform="translate(0,0)" d="M470,101.5 l5,8 l5,-8 l5,8 l5,-8 l5,8 l5,-8 l5,8 l5,-8 l5,8 l5,-8" fill="none" stroke="#86eaa9" stroke-width="2.6" stroke-linecap="round"/><g transform="translate(0,0)"><rect x="350" y="62" width="72" height="44" rx="3" fill="none" stroke="#c0c3c9"/><text x="350" y="124" class="lbl">BirdNET: Bicknell's Thrush</text><line x1="349" y1="120" x2="488" y2="120" stroke="#9ca0a8"/><text x="350" y="141" class="lbl2">Regional model: correct</text></g><path transform="translate(560,0)" d="M40,94.6 q14,-12 30,8 t26,14" fill="none" stroke="#86eaa9" stroke-width="2.6" stroke-linecap="round"/><path transform="translate(560,0)" d="M150,102.6 l5,8 l5,-8 l5,8 l5,-8 l5,8 l5,-8 l5,8 l5,-8 l5,8 l5,-8" fill="none" stroke="#86eaa9" stroke-width="2.6" stroke-linecap="round"/><path transform="translate(560,0)" d="M270,122.9 c12,-4 24,-20 46,-26" fill="none" stroke="#86eaa9" stroke-width="2.6" stroke-linecap="round"/><path transform="translate(560,0)" d="M360,84 q14,-12 30,8 t26,14" fill="none" stroke="#86eaa9" stroke-width="2.6" stroke-linecap="round"/><path transform="translate(560,0)" d="M470,101.5 l5,8 l5,-8 l5,8 l5,-8 l5,8 l5,-8 l5,8 l5,-8 l5,8 l5,-8" fill="none" stroke="#86eaa9" stroke-width="2.6" stroke-linecap="round"/><g transform="translate(560,0)"><rect x="350" y="62" width="72" height="44" rx="3" fill="none" stroke="#c0c3c9"/><text x="350" y="124" class="lbl">BirdNET: Bicknell's Thrush</text><line x1="349" y1="120" x2="488" y2="120" stroke="#9ca0a8"/><text x="350" y="141" class="lbl2">Regional model: correct</text></g></g>
<rect x="0" y="48" width="50" height="128" fill="#101112"/>
<line x1="50.5" y1="48" x2="50.5" y2="176" stroke="#26282c"/>
<text x="22" y="32" class="lbl">Bird calls in Territory field audio</text>
<text x="12" y="70" class="lbl">8 kHz</text>
<text x="12" y="104" class="lbl">4 kHz</text>
<text x="12" y="138" class="lbl">2 kHz</text>
</g>
<line x1="1" y1="176.5" x2="559" y2="176.5" stroke="#26282c"/>
<text x="22" y="210" class="ttl">Avian Observatory</text>
<text x="22" y="238" class="txt">BirdNET calls Territory birds a North American thrush.</text><text x="22" y="259" class="txt">A regional model reaches 0.88 on unseen recordings.</text>
<text x="22" y="280" class="stk">Python, TensorFlow, BirdNET, FastAPI, Next.js.</text>
</svg>
